<?xml version="1.0" encoding="UTF-8" standalone="no"?>
<svg
   xmlns:dc="http://purl.org/dc/elements/1.1/"
   xmlns:cc="http://creativecommons.org/ns#"
   xmlns:rdf="http://www.w3.org/1999/02/22-rdf-syntax-ns#"
   xmlns:svg="http://www.w3.org/2000/svg"
   xmlns="http://www.w3.org/2000/svg"
   id="svg4"
   xml:space="preserve"
   enable-background="new 0 0 200 200"
   viewBox="0 0 200 200"
   y="0px"
   x="0px"
   version="1.1"><metadata
     id="metadata10"><rdf:RDF><cc:Work
         rdf:about=""><dc:format>image/svg+xml</dc:format><dc:type
           rdf:resource="http://purl.org/dc/dcmitype/StillImage" /></cc:Work></rdf:RDF></metadata><defs
     id="defs8" /><path
     id="path2"
     d="m100.2468 27.225224c-0.259652-0.01279-0.60048-0.0033-0.756716 0.02168-0.156236 0.02502-0.419224 0.08952-0.5838 0.142892-0.165132 0.05338-0.469264 0.185148-0.676652 0.292456-0.207388 0.107864-0.555444 0.360844-0.774508 0.563228-0.218508 0.201828-0.513188 0.54488-0.655524 0.762276-0.14178 0.21684-0.32248 0.59214-0.401432 0.834-0.09841 0.299684-2.335756 13.094356-7.053416 40.33224-3.800816 21.940872-6.926092 39.912464-6.946108 39.936374-0.02002 0.0239-2.532024-6.50631-5.58224-14.511606-3.050772-8.005284-5.628388-14.730104-5.728468-14.944164-0.100636-0.21406-0.296904-0.543212-0.43646-0.73114s-0.408104-0.470376-0.596588-0.627724c-0.188484-0.156792-0.518748-0.373632-0.733364-0.481496-0.214616-0.10842-0.578796-0.245196-0.809536-0.304132-0.272996-0.0695-0.608264-0.107308-0.957988-0.107308-0.353616 0-0.684992 0.03781-0.966884 0.109532-0.235744 0.0606-0.599368 0.199604-0.807868 0.309136-0.207944 0.109532-0.524864 0.316364-0.702784 0.459812-0.178476 0.144004-0.430344 0.398652-0.560448 0.56712-0.130104 0.167912-3.479448 5.40988-7.443728 11.6482-3.963724 6.23832-7.224108 11.35797-7.24468 11.37687-0.02113 0.0189-3.02742-1.32661-6.682008-2.990166-3.654032-1.662996-6.81934-3.079684-7.0334-3.147516-0.32248-0.10286-0.513188-0.123432-1.112-0.121208-0.64218 0.0022-0.772284 0.01946-1.1676 0.156792-0.24464 0.08507-0.573792 0.228516-0.732252 0.318588-0.157904 0.09007-0.427008 0.279668-0.598256 0.420336-0.171804 0.141224-0.427564 0.409772-0.568788 0.596588-0.14178 0.186816-0.327484 0.489836-0.413108 0.673316-0.08562 0.18348-3.837512 9.99132-8.338332 21.7952-6.083752 15.9572-8.203224 21.57558-8.263828 21.9064-0.0506 0.27522-0.07006 0.6066-0.05115 0.87014 0.01612 0.23408 0.05894 0.5471 0.09452 0.695 0.03558 0.14845 0.160684 0.4776 0.278 0.7317 0.117316 0.25464 0.340828 0.62216 0.495952 0.81787 0.15568 0.19516 0.437572 0.47149 0.627168 0.61383 0.189596 0.14233 0.487612 0.33082 0.66164 0.41922 0.174584 0.0879 0.512632 0.21406 0.751156 0.28022 0.310804 0.0862 0.591028 0.1201 0.98968 0.1201s0.678876-0.0339 0.98968-0.1201c0.238524-0.0662 0.576572-0.19237 0.751156-0.28022 0.174028-0.0884 0.472044-0.27689 0.66164-0.41922 0.189596-0.14234 0.467596-0.41422 0.618272-0.60382 0.15012-0.1896 0.348612-0.49484 0.440352-0.67832 0.0923-0.18348 3.487232-9.03945 7.544364-19.67962 4.057688-10.64017 7.394244-19.37382 7.415372-19.40718 0.02502-0.04 2.2796 0.95743 6.432364 2.84505 4.241724 1.92821 6.5191 2.93513 6.76652 2.99128 0.204608 0.0467 0.617716 0.0845 0.9174 0.0845 0.299684-0.00055 0.707788-0.0395 0.90628-0.0862 0.199048-0.0467 0.56156-0.18236 0.8062-0.3019 0.24464-0.11899 0.578796-0.32804 0.742816-0.46371 0.16402-0.13622 0.401432-0.37419 0.5282-0.52931s2.957364-4.57366 6.290584-9.81952c3.33322-5.245856 6.074856-9.53762 6.092092-9.53762 0.01724 0 3.066896 7.962476 6.776528 17.6947 3.709632 9.73222 6.83324 17.86539 6.941104 18.07389 0.10842 0.20906 0.369184 0.56434 0.58102 0.79119 0.21406 0.22963 0.561004 0.52153 0.783404 0.65942 0.219064 0.13622 0.598812 0.31747 0.843452 0.4031l0.4448 0.15456 0.7506 0.002 0.7506 0.002 0.49206-0.16124c0.281336-0.0923 0.662752-0.273 0.8896-0.42089 0.218508-0.14289 0.56712-0.44313 0.774508-0.6672 0.247976-0.26799 0.452028-0.56156 0.597144-0.85791 0.121208-0.24742 0.254648-0.58825 0.296904-0.75616 0.0417-0.16847 2.950136-16.88794 6.462388-37.1547 3.512252-20.266756 6.399004-36.8489 6.415124-36.8489 0.0161 0.000556 2.71662 12.691812 6.00091 28.2031 3.28429 15.511844 6.01759 28.39047 6.07374 28.6201 0.0567 0.22907 0.20183 0.61716 0.32248 0.8618 0.12121 0.24464 0.32415 0.5699 0.45148 0.7228 0.12676 0.1529 0.37196 0.39865 0.54488 0.54599 0.17236 0.14734 0.51374 0.36529 0.75838 0.48428 0.24464 0.11898 0.60771 0.25409 0.8062 0.30079s0.6116 0.0851 0.9174 0.0851 0.71891-0.0384 0.9174-0.0851 0.56156-0.18236 0.8062-0.3019c0.24464-0.11899 0.5788-0.32804 0.74282-0.46371 0.16402-0.13622 0.40143-0.37419 0.5282-0.52875 0.12676-0.15402 2.20454-3.48612 4.61702-7.40314 2.41304-3.91758 4.40463-7.102904 4.42632-7.07844 0.0217 0.02446 3.88699 7.02506 8.58964 15.55688s8.63246 15.62471 8.73309 15.7626c0.10064 0.13733 0.31581 0.37919 0.47872 0.5371 0.16291 0.15734 0.45091 0.3853 0.63995 0.50651 0.1896 0.12121 0.5649 0.29246 0.834 0.38031 0.43813 0.144 0.56601 0.16068 1.21264 0.16068 0.64774 0 0.77395-0.0167 1.21486-0.16124 0.28856-0.0945 0.65719-0.27022 0.8896-0.42367 0.22796-0.15068 0.69611-0.56879 1.09643-0.97856 0.3842-0.39365 3.46944-3.62457 6.85659-7.17963 3.38716-3.55506 6.17939-6.4635 6.20552-6.4635 0.0261 0 2.81836 2.90844 6.20552 6.4635 3.38715 3.55506 6.47239 6.78598 6.85659 7.17963 0.41199 0.42145 0.86736 0.82733 1.10866 0.98634 0.22518 0.14901 0.61327 0.33861 0.8618 0.42145 0.40588 0.13566 0.53154 0.15123 1.23043 0.15123s0.82455-0.0156 1.23043-0.15123c0.24853-0.0828 0.63662-0.27133 0.8618-0.41922 0.22518-0.1479 0.57657-0.44592 0.78062-0.66331 0.25076-0.26688 0.44369-0.54377 0.59715-0.8568 0.12454-0.25465 0.2641-0.61104 0.30969-0.7923 0.0462-0.18125 0.0978-0.51875 0.11565-0.7506 0.0206-0.26688 0.003-0.58491-0.0484-0.86958-0.045-0.24687-0.144-0.60382-0.22073-0.79397-0.0767-0.1896-0.22351-0.48372-0.32637-0.6533-0.11843-0.19682-3.18254-3.45443-8.45676-8.99163-4.54864-4.77604-8.42229-8.8126-8.60799-8.96995-0.18515-0.15735-0.47927-0.3614-0.6533-0.4537-0.17347-0.0917-0.50318-0.22573-0.73281-0.29746-0.35139-0.10953-0.53098-0.12954-1.1398-0.12621-0.62272 0.003-0.78285 0.0233-1.15537 0.14734-0.23797 0.0789-0.60993 0.24909-0.82733 0.37864-0.21739 0.12899-0.56156 0.40032-0.76561 0.6027-0.20349 0.20294-3.13195 3.26706-6.50742 6.80989l-6.13657 6.4407-0.0829-0.1579c-0.0456-0.0873-4.02155-7.30195-8.83595-16.03226-4.8144-8.730868-8.82928-15.9989-8.92213-16.1518-0.0934-0.1529-0.26744-0.395872-0.38753-0.539876-0.1201-0.144004-0.37308-0.37808-0.56212-0.51986-0.18848-0.142336-0.45648-0.315808-0.59548-0.385864-0.13844-0.07061-0.41422-0.182924-0.61215-0.249644-0.24687-0.0834-0.55267-0.13066-0.97189-0.15012-0.43924-0.02002-0.7278-0.0033-1.0236 0.05949-0.22629 0.04837-0.57379 0.163464-0.77228 0.256316-0.19849 0.09285-0.51708 0.28078-0.7089 0.417556-0.19126 0.13622-0.46926 0.385308-0.61716 0.55322-0.15068 0.170136-1.85482 2.883416-3.85586 6.138796-1.97213 3.208676-3.60121 5.817984-3.61956 5.797968-0.0183-0.01946-3.2298-15.134876-7.13626-33.590184-3.90701-18.455308-7.16517-33.742528-7.24023-33.9716-0.0751-0.229628-0.24742-0.59492-0.38253-0.81176-0.13455-0.217396-0.4309-0.571568-0.65775-0.787296-0.29079-0.275776-0.54988-0.4587-0.87681-0.618828-0.2552-0.1251-0.61438-0.265768-0.79786-0.312472-0.18348-0.0467-0.54599-0.09563-0.8062-0.10842zm-0.0278 133.706326c-59.33076-0.008-71.837424 0.003-72.1132 0.0639-0.18348 0.0406-0.464816 0.12565-0.6255 0.18959-0.160684 0.0634-0.452028 0.21684-0.64774 0.34028-0.195156 0.12343-0.53098 0.40921-0.745596 0.63495-0.288564 0.30413-0.45592 0.54599-0.643848 0.93019-0.162908 0.3336-0.286896 0.68777-0.345832 0.98968-0.0645 0.3297-0.0834 0.62272-0.06227 0.97578 0.02002 0.33137 0.08118 0.65774 0.178476 0.94742 0.08173 0.24297 0.22518 0.57602 0.318588 0.74059 0.09396 0.16402 0.2919 0.44369 0.440352 0.62217 0.147896 0.17792 0.427564 0.43646 0.621052 0.57434 0.193488 0.13845 0.51152 0.32693 0.707232 0.41923s0.544324 0.21239 0.775064 0.26688l0.419222 0.09845h143.17l0.41922-0.0984c0.23074-0.0545 0.57936-0.17459 0.77507-0.26688 0.19571-0.0923 0.51374-0.28078 0.70723-0.41923 0.19349-0.13788 0.47316-0.39642 0.62105-0.57434 0.14845-0.17848 0.34639-0.45815 0.44035-0.62217 0.0934-0.16457 0.23519-0.49261 0.3147-0.73003 0.0923-0.27466 0.15735-0.61827 0.17848-0.94631 0.0245-0.37252 0.008-0.64607-0.0584-0.9869-0.0589-0.30246-0.18293-0.65663-0.34584-0.99023-0.18848-0.38531-0.35528-0.62606-0.64607-0.93242-0.21628-0.2274-0.57045-0.52375-0.78785-0.6583-0.21684-0.13511-0.59492-0.31636-0.83956-0.40199l-0.4448-0.15679z"
     fill="#efcb4f" /></svg>