<?xml version="1.0" encoding="UTF-8" standalone="no"?>
<svg
   xmlns:dc="http://purl.org/dc/elements/1.1/"
   xmlns:cc="http://creativecommons.org/ns#"
   xmlns:rdf="http://www.w3.org/1999/02/22-rdf-syntax-ns#"
   xmlns:svg="http://www.w3.org/2000/svg"
   xmlns="http://www.w3.org/2000/svg"
   id="svg48"
   xml:space="preserve"
   viewBox="0 0 1024 768"
   y="0px"
   x="0px"
   version="1.1"><metadata
     id="metadata54"><rdf:RDF><cc:Work
         rdf:about=""><dc:format>image/svg+xml</dc:format><dc:type
           rdf:resource="http://purl.org/dc/dcmitype/StillImage" /></cc:Work></rdf:RDF></metadata><defs
     id="defs52" /><linearGradient
     y2="565.2551"
     x2="714.6448"
     y1="196.7104"
     x1="346.1001"
     gradientUnits="userSpaceOnUse"
     id="SVGID_1_"><stop
       id="stop2"
       style="stop-color:#eb3362"
       offset="0" /><stop
       id="stop4"
       style="stop-color:#efcb4f"
       offset="1" /></linearGradient><g
     style="fill:#efcb4f"
     id="logo-group"><path
       style="stroke-width:0.75"
       d="m 512.1851,262.96269 c -0.19474,-0.01 -0.45036,-0.002 -0.56754,0.0163 -0.11717,0.0188 -0.31442,0.0671 -0.43785,0.10717 -0.12385,0.04 -0.35195,0.13886 -0.50749,0.21934 -0.15554,0.0809 -0.41658,0.27063 -0.58088,0.42242 -0.16388,0.15137 -0.38489,0.40866 -0.49164,0.57171 -0.10634,0.16263 -0.24186,0.4441 -0.30107,0.6255 -0.0738,0.22476 -1.75182,9.82076 -5.29007,30.24918 -2.85061,16.45565 -5.19457,29.93434 -5.20958,29.95228 -0.015,0.0179 -1.89902,-4.87974 -4.18668,-10.88371 -2.28808,-6.00396 -4.22129,-11.04758 -4.29635,-11.20812 -0.0755,-0.16055 -0.22268,-0.40741 -0.32734,-0.54836 -0.10467,-0.14094 -0.30608,-0.35278 -0.44744,-0.47079 -0.14137,-0.11759 -0.38907,-0.28022 -0.55003,-0.36112 -0.16096,-0.0813 -0.43409,-0.1839 -0.60715,-0.2281 -0.20475,-0.0521 -0.4562,-0.0805 -0.71849,-0.0805 -0.26521,0 -0.51374,0.0284 -0.72516,0.0822 -0.17681,0.0455 -0.44953,0.1497 -0.6059,0.23185 -0.15596,0.0822 -0.39365,0.23727 -0.52709,0.34486 -0.13386,0.108 -0.32276,0.29899 -0.42034,0.42534 -0.0976,0.12593 -2.60958,4.05741 -5.58279,8.73615 -2.9728,4.67874 -5.41808,8.51848 -5.43351,8.53265 -0.0159,0.0142 -2.27057,-0.99496 -5.01151,-2.24262 -2.74052,-1.24725 -5.1145,-2.30977 -5.27505,-2.36064 -0.24186,-0.0771 -0.38489,-0.0926 -0.834,-0.0909 -0.48164,0.002 -0.57921,0.0146 -0.8757,0.1176 -0.18348,0.0638 -0.43034,0.17139 -0.54919,0.23894 -0.11843,0.0675 -0.32026,0.20975 -0.44869,0.31525 -0.12885,0.10592 -0.32067,0.30733 -0.42659,0.44744 -0.10634,0.14011 -0.24562,0.36738 -0.30983,0.50499 -0.0642,0.13761 -2.87814,7.49349 -6.25375,16.3464 -4.56282,11.9679 -6.15242,16.18169 -6.19787,16.4298 -0.038,0.20641 -0.0525,0.45495 -0.0384,0.6526 0.0121,0.17557 0.0442,0.41033 0.0709,0.52126 0.0267,0.11133 0.12052,0.35819 0.2085,0.54877 0.088,0.19098 0.25563,0.46662 0.37197,0.6134 0.11676,0.14637 0.32818,0.35362 0.47037,0.46037 0.1422,0.10675 0.36571,0.24812 0.49623,0.31442 0.13094,0.0659 0.38448,0.16054 0.56337,0.21016 0.2331,0.0647 0.44327,0.0901 0.74226,0.0901 0.29899,0 0.50916,-0.0254 0.74226,-0.0901 0.17889,-0.0496 0.43243,-0.14427 0.56337,-0.21016 0.13052,-0.0663 0.35403,-0.20767 0.49623,-0.31442 0.1422,-0.10675 0.3507,-0.31066 0.4637,-0.45286 0.11259,-0.1422 0.26146,-0.37113 0.33027,-0.50874 0.0692,-0.13761 2.61542,-6.77959 5.65827,-14.75972 3.04327,-7.98012 5.54568,-14.53036 5.56153,-14.55538 0.0188,-0.03 1.7097,0.71807 4.82427,2.13379 3.18129,1.44615 4.88933,2.20134 5.07489,2.24346 0.15346,0.035 0.46329,0.0634 0.68805,0.0634 0.22476,-4.1e-4 0.53084,-0.0296 0.67971,-0.0646 0.14929,-0.035 0.42117,-0.13677 0.60465,-0.22642 0.18348,-0.0892 0.4341,-0.24603 0.55711,-0.34779 0.12302,-0.10216 0.30108,-0.28064 0.39615,-0.39698 0.0951,-0.11634 2.21803,-3.43024 4.71794,-7.36464 2.49992,-3.93439 4.55614,-7.15321 4.56907,-7.15321 0.0129,0 2.30017,5.97185 5.0824,13.27102 2.78222,7.29917 5.12493,13.39904 5.20582,13.55542 0.0813,0.15679 0.27689,0.42325 0.43577,0.59339 0.16054,0.17222 0.42075,0.39115 0.58755,0.49457 0.1643,0.10216 0.44911,0.2381 0.63259,0.30232 l 0.3336,0.11592 0.56295,0.002 0.56295,0.001 0.36905,-0.12093 c 0.211,-0.0692 0.49706,-0.20475 0.6672,-0.31567 0.16388,-0.10716 0.42534,-0.33234 0.58088,-0.5004 0.18598,-0.20099 0.33902,-0.42117 0.44786,-0.64343 0.0909,-0.18556 0.19098,-0.44119 0.22267,-0.56712 0.0313,-0.12635 2.21261,-12.66595 4.84679,-27.86602 2.63419,-15.20007 4.79926,-27.63668 4.81135,-27.63668 0.0121,4.2e-4 2.03746,9.51886 4.50068,21.15233 2.46322,11.63388 4.51319,21.29285 4.55531,21.46507 0.0425,0.1718 0.15137,0.46287 0.24186,0.64635 0.0909,0.18348 0.24311,0.42743 0.33861,0.5421 0.0951,0.11468 0.27896,0.29899 0.40865,0.4095 0.12927,0.1105 0.38531,0.27396 0.56879,0.3632 0.18348,0.0892 0.45578,0.19057 0.60465,0.2256 0.14887,0.035 0.4587,0.0638 0.68805,0.0638 0.22935,0 0.53918,-0.0288 0.68805,-0.0638 0.14887,-0.035 0.42117,-0.13677 0.60465,-0.22643 0.18348,-0.0892 0.4341,-0.24603 0.55712,-0.34778 0.12301,-0.10217 0.30107,-0.28064 0.39615,-0.39656 0.0951,-0.11552 1.6534,-2.61459 3.46276,-5.55236 1.80978,-2.93818 3.30347,-5.32718 3.31974,-5.30883 0.0163,0.0183 2.91524,5.2688 6.44223,11.66766 3.52699,6.39887 6.47435,11.71853 6.54982,11.82195 0.0755,0.103 0.23686,0.28439 0.35904,0.40283 0.12218,0.118 0.33818,0.28897 0.47996,0.37988 0.1422,0.0909 0.42367,0.21935 0.6255,0.28523 0.3286,0.108 0.42451,0.12051 0.90948,0.12051 0.48581,0 0.58046,-0.0125 0.91115,-0.12093 0.21641,-0.0709 0.49289,-0.20266 0.66719,-0.31775 0.17098,-0.11301 0.52209,-0.42659 0.82233,-0.73392 0.28815,-0.29524 2.60208,-2.71843 5.14244,-5.38472 2.54037,-2.6663 4.63454,-4.84763 4.65414,-4.84763 0.0196,0 2.11377,2.18133 4.65414,4.84763 2.54036,2.66629 4.85429,5.08948 5.14244,5.38472 0.30899,0.31609 0.65052,0.6205 0.8315,0.73976 0.16888,0.11175 0.45995,0.25395 0.64635,0.31608 0.30441,0.10175 0.39865,0.11342 0.92282,0.11342 0.52417,0 0.61841,-0.0117 0.92282,-0.11342 0.1864,-0.0621 0.47747,-0.2035 0.64635,-0.31441 0.16889,-0.11093 0.43243,-0.33444 0.58547,-0.49748 0.18807,-0.20017 0.33277,-0.40783 0.44786,-0.6426 0.0934,-0.19099 0.19808,-0.45828 0.23227,-0.59423 0.0346,-0.13594 0.0734,-0.38906 0.0867,-0.56295 0.0154,-0.20016 0.002,-0.43868 -0.0363,-0.65219 -0.0338,-0.18515 -0.10801,-0.45286 -0.16555,-0.59547 -0.0575,-0.1422 -0.16763,-0.36279 -0.24478,-0.48998 -0.0888,-0.14761 -2.3869,-2.59082 -6.34257,-6.74372 -3.41148,-3.58203 -6.31672,-6.60945 -6.45599,-6.72746 -0.13887,-0.11802 -0.35946,-0.27105 -0.48998,-0.34028 -0.1301,-0.0688 -0.37738,-0.1693 -0.5496,-0.22309 -0.26355,-0.0822 -0.39824,-0.0972 -0.85486,-0.0947 -0.46704,0.002 -0.58713,0.0175 -0.86652,0.11051 -0.17848,0.0592 -0.45745,0.18681 -0.6205,0.28397 -0.16304,0.0967 -0.42117,0.30025 -0.57421,0.45203 -0.15262,0.15221 -2.34896,2.4503 -4.88056,5.10742 l -4.60243,4.83052 -0.0622,-0.11842 c -0.0342,-0.0655 -3.01616,-5.47647 -6.62696,-12.0242 -3.6108,-6.54815 -6.62196,-11.99917 -6.69159,-12.11385 -0.0701,-0.11467 -0.20059,-0.2969 -0.29065,-0.4049 -0.0901,-0.10801 -0.27981,-0.28356 -0.42159,-0.3899 -0.14136,-0.10675 -0.34236,-0.23686 -0.44661,-0.2894 -0.10383,-0.0529 -0.31067,-0.13719 -0.45912,-0.18723 -0.18515,-0.0625 -0.4145,-0.098 -0.72891,-0.11259 -0.32943,-0.015 -0.54585,-0.002 -0.7677,0.0446 -0.16972,0.0363 -0.43035,0.1226 -0.57921,0.19223 -0.14887,0.0696 -0.38781,0.21059 -0.53168,0.31317 -0.14344,0.10217 -0.35194,0.28898 -0.46287,0.41492 -0.11301,0.1276 -1.39111,2.16256 -2.89189,4.60409 -1.4791,2.40651 -2.70091,4.36349 -2.71467,4.34848 -0.0137,-0.0146 -2.42235,-11.35116 -5.3522,-25.19264 -2.93026,-13.84148 -5.37388,-25.30689 -5.43017,-25.4787 -0.0563,-0.17222 -0.18556,-0.44619 -0.2869,-0.60882 -0.10091,-0.16305 -0.32317,-0.42868 -0.49331,-0.59047 -0.21809,-0.20683 -0.41241,-0.34403 -0.65761,-0.46412 -0.1914,-0.0938 -0.46078,-0.19933 -0.59839,-0.23436 -0.13761,-0.035 -0.4095,-0.0717 -0.60465,-0.0813 z m -0.0208,100.27974 c -44.49807,-0.006 -53.87807,0.002 -54.0849,0.0479 -0.13761,0.0304 -0.34861,0.0942 -0.46912,0.14219 -0.12052,0.0476 -0.33903,0.16263 -0.48581,0.25521 -0.14637,0.0926 -0.39824,0.30691 -0.5592,0.47621 -0.21642,0.2281 -0.34194,0.40949 -0.48288,0.69765 -0.12218,0.25019 -0.21518,0.51582 -0.25938,0.74226 -0.0484,0.24727 -0.0626,0.46704 -0.0467,0.73183 0.015,0.24853 0.0609,0.4933 0.13386,0.71056 0.0613,0.18223 0.16888,0.43202 0.23894,0.55545 0.0705,0.12301 0.21892,0.33276 0.33026,0.46663 0.11092,0.13343 0.32068,0.32734 0.46579,0.43075 0.14512,0.10384 0.38364,0.2452 0.53043,0.31442 0.14678,0.0692 0.40824,0.15929 0.58129,0.20016 l 0.31442,0.0738 h 107.3775 l 0.31442,-0.0738 c 0.17305,-0.0409 0.43452,-0.13094 0.5813,-0.20016 0.14678,-0.0692 0.3853,-0.21058 0.53042,-0.31442 0.14512,-0.10341 0.35487,-0.29732 0.46579,-0.43076 0.11134,-0.13386 0.25979,-0.34361 0.33026,-0.46662 0.07,-0.12343 0.17639,-0.36946 0.23602,-0.54753 0.0692,-0.20599 0.11802,-0.4637 0.13386,-0.70973 0.0184,-0.27939 0.006,-0.48455 -0.0438,-0.74017 -0.0442,-0.22685 -0.13719,-0.49248 -0.25938,-0.74268 -0.14135,-0.28898 -0.26646,-0.46954 -0.48455,-0.69931 -0.16221,-0.17055 -0.42784,-0.39282 -0.59088,-0.49373 -0.16264,-0.10133 -0.4462,-0.23727 -0.62968,-0.30149 l -0.3336,-0.11759 z"
       id="icon" /><g
       style="font-variant-ligatures:none"
       aria-label="stockprice.ai"
       id="title"><path
         transform="matrix(1.156556,0,0,1.156556,-80.2627,472.3829)"
         style="font-variant-ligatures:none"
         d="m 305.71831,-12.672 -7.992,-2.736 q -8.856,-3.024 -7.632,-11.808 0.648,-4.968 4.392,-7.272 3.744,-2.304 12.312,-2.304 10.368,0.144 17.352,1.584 l -1.152,7.848 q -9.36,-0.144 -13.824,-0.144 -4.104,0 -5.328,0.216 -1.224,0.216 -1.368,1.08 -0.072,0.864 0.648,1.368 0.792,0.504 3.024,1.224 l 8.28,2.664 q 8.856,2.88 7.848,11.088 -0.792,6.408 -4.968,8.568 -4.176,2.088 -12.888,2.088 -8.496,0 -17.136,-1.44 l 1.08,-7.848 q 0.864,0 5.184,0.072 4.32,0 6.552,0 5.832,0 7.632,-0.36 1.872,-0.36 2.016,-1.368 0.072,-0.792 -0.648,-1.224 -0.72,-0.432 -3.384,-1.296 z"
         id="path29599" /><path
         transform="matrix(1.156556,0,0,1.156556,-80.2627,472.3829)"
         style="font-variant-ligatures:none"
         d="m 346.91019,-27.576 -2.16,15.408 q -0.288,1.728 0.216,2.304 0.504,0.504 2.376,0.504 h 4.464 l 0.648,8.712 q -4.176,1.584 -11.016,1.584 -5.328,0 -8.136,-2.808 -2.736,-2.808 -2.016,-7.56 l 2.664,-18.144 h -6.264 l 1.008,-7.848 6.48,-0.36 1.44,-9.648 h 12.888 l -1.368,9.648 h 9.144 l -1.152,8.208 z"
         id="path29601" /><path
         transform="matrix(1.156556,0,0,1.156556,-80.2627,472.3829)"
         style="font-variant-ligatures:none"
         d="m 379.58244,-36.792 q 10.512,0 14.688,4.536 4.176,4.464 2.664,14.904 -1.44,10.08 -6.192,14.184 -4.68,4.032 -14.904,4.032 -10.44,0 -14.76,-4.464 -4.248,-4.464 -2.736,-14.76 1.44,-10.224 6.12,-14.328 4.68,-4.104 15.12,-4.104 z m -0.216,9.216 q -3.6,0 -5.04,2.016 -1.44,1.944 -2.376,8.208 -0.792,5.544 0,7.344 0.864,1.728 4.32,1.728 3.384,0 4.824,-2.016 1.44,-2.016 2.304,-8.064 0.864,-5.616 0.072,-7.416 -0.792,-1.8 -4.104,-1.8 z"
         id="path29603" /><path
         transform="matrix(1.156556,0,0,1.156556,-80.262701,472.3829)"
         style="font-variant-ligatures:none"
         d="m 432.39894,-10.152 0.936,8.424 q -5.976,2.592 -14.976,2.592 -9.72,0 -13.968,-4.536 -4.176,-4.608 -2.736,-14.76 1.368,-9.936 5.76,-14.112 4.464,-4.248 14.184,-4.248 9.144,0 15.192,2.592 l -1.8,7.992 -11.736,-0.072 q -4.032,0 -5.688,1.728 -1.656,1.728 -2.304,6.552 -0.72,5.256 0.36,6.84 1.152,1.584 5.112,1.584 6.696,0 11.664,-0.576 z"
         id="path29605" /><path
         transform="matrix(1.156556,0,0,1.156556,-80.262701,472.3829)"
         style="font-variant-ligatures:none"
         d="m 465.62244,-35.784 h 13.392 q -2.592,10.512 -12.024,16.992 2.232,1.8 3.528,4.68 L 477.14244,0 h -13.536 l -6.12,-13.896 q -2.52,1.008 -4.608,1.728 l -0.072,1.08 -1.584,11.088 h -13.104 l 7.056,-50.4 h 13.104 l -2.808,20.52 q -0.72,4.32 -2.88,8.856 4.896,-2.664 8.424,-6.552 3.6,-3.888 4.608,-8.208 z"
         id="path29607" /><path
         transform="matrix(1.156556,0,0,1.156556,-80.2627,472.3829)"
         style="font-variant-ligatures:none"
         d="m 495.78256,-35.784 v 6.552 q 7.128,-7.416 14.616,-7.416 12.456,0 9.864,19.584 -0.72,5.616 -2.232,9.288 -1.44,3.672 -3.744,5.544 -2.304,1.872 -4.824,2.52 -2.448,0.72 -5.976,0.72 -5.184,0 -10.224,-1.008 0,3.312 -0.504,6.768 l -1.08,6.552 h -13.104 l 6.84,-49.104 z m -1.08,28.368 h 4.32 q 4.392,0 5.688,-1.656 1.368,-1.656 2.232,-7.776 0.792,-5.904 0.36,-7.704 -0.432,-1.872 -2.448,-1.872 -3.672,0 -8.28,4.464 z"
         id="path29609" /><path
         transform="matrix(1.156556,0,0,1.156556,-80.2627,472.3829)"
         style="font-variant-ligatures:none"
         d="m 556.65631,-36.792 -2.808,12.024 h -3.024 q -3.456,0 -10.584,2.52 L 537.21631,0 h -13.176 l 5.04,-35.784 h 10.224 l 0.216,5.688 q 7.632,-6.696 14.688,-6.696 z"
         id="path29611" /><path
         transform="matrix(1.156556,0,0,1.156556,-80.2627,472.3829)"
         style="font-variant-ligatures:none"
         d="m 566.91294,-51.912 h 5.184 q 4.176,0 3.744,4.104 l -0.504,3.744 q -0.504,3.6 -4.248,3.6 h -5.328 q -4.104,0 -3.6,-4.104 l 0.504,-3.744 q 0.288,-3.6 4.248,-3.6 z M 569.00094,0 h -13.032 l 4.968,-35.784 h 13.032 z"
         id="path29613" /><path
         transform="matrix(1.156556,0,0,1.156556,-80.262701,472.3829)"
         style="font-variant-ligatures:none"
         d="m 608.60206,-10.152 0.936,8.424 q -5.976,2.592 -14.976,2.592 -9.72,0 -13.968,-4.536 -4.176,-4.608 -2.736,-14.76 1.368,-9.936 5.76,-14.112 4.464,-4.248 14.184,-4.248 9.144,0 15.192,2.592 l -1.8,7.992 -11.736,-0.072 q -4.032,0 -5.688,1.728 -1.656,1.728 -2.304,6.552 -0.72,5.256 0.36,6.84 1.152,1.584 5.112,1.584 6.696,0 11.664,-0.576 z"
         id="path29615" /><path
         transform="matrix(1.156556,0,0,1.156556,-80.262701,472.3829)"
         style="font-variant-ligatures:none"
         d="m 648.74769,-10.152 0.864,8.136 q -6.408,2.88 -16.416,2.88 -11.088,0 -15.12,-4.68 -4.032,-4.752 -2.952,-14.544 1.224,-10.728 6.12,-14.544 4.968,-3.888 15.192,-3.888 10.152,0 13.896,3.24 3.744,3.168 2.808,9.648 -0.72,4.824 -4.176,6.84 -3.384,1.944 -10.8,2.52 l -9.72,0.72 q 0.072,2.736 1.44,3.672 1.368,0.864 4.608,0.864 6.84,0 14.256,-0.864 z m -19.512,-10.584 6.048,-0.576 q 2.664,-0.216 3.816,-0.936 1.224,-0.792 1.44,-2.952 0.144,-1.728 -0.72,-2.232 -0.864,-0.576 -3.6,-0.504 -3.312,0.072 -4.752,1.512 -1.368,1.368 -2.232,5.688 z"
         id="path29617" /><path
         transform="matrix(1.156556,0,0,1.156556,-80.262701,472.3829)"
         style="font-variant-ligatures:none"
         d="m 660.78406,-12.24 h 2.736 q 2.376,0 3.528,1.296 1.152,1.224 0.792,3.528 l -0.432,3.168 Q 666.90406,0 662.44006,0 h -2.808 q -4.896,0 -4.32,-4.752 l 0.432,-3.24 q 0.648,-4.248 5.04,-4.248 z"
         id="path29619" /><path
         transform="matrix(1.156556,0,0,1.156556,-80.262701,472.3829)"
         style="font-variant-ligatures:none"
         d="m 709.31544,0 h -10.152 v -6.768 q -5.04,7.2 -14.256,7.632 -7.128,0.36 -9.432,-4.536 -2.304,-4.896 -0.792,-15.048 0.792,-4.968 2.232,-8.352 1.44,-3.384 3.096,-5.256 1.728,-1.944 4.536,-2.952 2.88,-1.008 5.4,-1.224 2.592,-0.288 6.696,-0.288 3.744,0 9.36,0.72 5.616,0.72 8.208,1.512 z m -9.072,-27.792 -4.248,-0.072 q -3.816,0 -5.544,1.656 -1.656,1.584 -2.448,7.272 -0.936,6.192 -0.576,7.92 0.36,1.728 2.592,1.656 3.888,-0.216 8.496,-6.264 z"
         id="path29621" /><path
         transform="matrix(1.156556,0,0,1.156556,-80.262701,472.3829)"
         style="font-variant-ligatures:none"
         d="m 727.92856,-51.912 h 5.184 q 4.176,0 3.744,4.104 l -0.504,3.744 q -0.504,3.6 -4.248,3.6 h -5.328 q -4.104,0 -3.6,-4.104 l 0.504,-3.744 q 0.288,-3.6 4.248,-3.6 z M 730.01656,0 h -13.032 l 4.968,-35.784 h 13.032 z"
         id="path29623" /></g><g
       style="font-variant-ligatures:none"
       aria-label="AI Stock Price Prediction"
       id="subtitle"><path
         transform="matrix(0.75,0,0,0.75,129.06856,525.26423)"
         style="font-variant-ligatures:none"
         d="m 363.65325,-8.496 -2.096,-9.488 q -0.08,-0.432 -0.192,-0.992 -0.112,-0.576 -0.192,-1.232 -0.24,0.672 -0.48,1.232 -0.24,0.56 -0.432,1.008 l -4.432,9.472 z m 4.976,8.496 h -2.304 q -0.4,0 -0.624,-0.192 -0.224,-0.208 -0.32,-0.528 l -1.248,-5.6 h -9.328 l -2.624,5.6 q -0.144,0.288 -0.448,0.512 -0.288,0.208 -0.656,0.208 h -2.336 l 11.232,-22.928 h 3.04 z"
         id="path29626" /><path
         transform="matrix(0.75,0,0,0.75,129.06856,525.26423)"
         style="font-variant-ligatures:none"
         d="m 374.54475,0 h -3.008 l 2.8,-22.928 h 3.008 z"
         id="path29628" /><path
         transform="matrix(0.75,0,0,0.75,129.06856,525.26423)"
         style="font-variant-ligatures:none"
         d="m 400.80075,-19.376 q -0.176,0.224 -0.336,0.352 -0.16,0.112 -0.384,0.112 -0.272,0 -0.576,-0.272 -0.304,-0.288 -0.784,-0.608 -0.464,-0.336 -1.136,-0.608 -0.672,-0.288 -1.68,-0.288 -1.024,0 -1.824,0.32 -0.8,0.32 -1.36,0.88 -0.544,0.544 -0.832,1.28 -0.288,0.736 -0.288,1.584 0,0.832 0.384,1.408 0.384,0.56 1.008,0.976 0.624,0.4 1.424,0.72 0.816,0.304 1.648,0.64 0.832,0.32 1.632,0.72 0.816,0.4 1.44,0.992 0.624,0.592 1.008,1.424 0.384,0.832 0.384,2.016 0,1.632 -0.56,3.088 -0.56,1.44 -1.616,2.528 -1.04,1.088 -2.528,1.728 -1.488,0.64 -3.344,0.64 -2.048,0 -3.664,-0.8 -1.6,-0.816 -2.64,-2.192 l 1.056,-1.424 q 0.128,-0.176 0.32,-0.288 0.192,-0.112 0.416,-0.112 0.304,0 0.656,0.368 0.352,0.352 0.896,0.8 0.544,0.432 1.344,0.8 0.8,0.352 2,0.352 1.104,0 1.984,-0.352 0.896,-0.352 1.504,-0.976 0.624,-0.624 0.96,-1.488 0.336,-0.88 0.336,-1.936 0,-0.88 -0.384,-1.456 -0.384,-0.592 -1.008,-0.992 -0.624,-0.4 -1.424,-0.688 -0.8,-0.304 -1.632,-0.608 -0.832,-0.304 -1.632,-0.688 -0.8,-0.384 -1.424,-0.976 -0.624,-0.592 -1.008,-1.456 -0.384,-0.864 -0.384,-2.128 0,-1.408 0.512,-2.704 0.512,-1.296 1.472,-2.288 0.96,-0.992 2.336,-1.584 1.392,-0.592 3.12,-0.592 1.76,0 3.168,0.672 1.408,0.672 2.32,1.84 z"
         id="path29630" /><path
         transform="matrix(0.75,0,0,0.75,129.06856,525.26423)"
         style="font-variant-ligatures:none"
         d="m 403.81775,-3.056 q 0,-0.096 0,-0.24 0,-0.16 0.016,-0.448 0.032,-0.288 0.08,-0.752 0.064,-0.464 0.16,-1.216 l 0.992,-8.112 h -1.808 q -0.224,0 -0.368,-0.144 -0.128,-0.16 -0.096,-0.48 l 0.128,-1.136 2.496,-0.336 1.216,-5.008 q 0.08,-0.24 0.24,-0.384 0.176,-0.16 0.432,-0.16 h 1.488 l -0.688,5.584 h 4.256 l -0.24,2.064 h -4.272 l -0.976,7.968 q -0.08,0.656 -0.128,1.056 -0.048,0.4 -0.08,0.64 -0.016,0.24 -0.032,0.336 0,0.096 0,0.144 0,0.816 0.384,1.216 0.384,0.384 1.024,0.384 0.432,0 0.736,-0.112 0.32,-0.128 0.56,-0.272 0.24,-0.144 0.4,-0.256 0.16,-0.128 0.272,-0.128 0.144,0 0.208,0.064 0.08,0.064 0.144,0.208 l 0.608,1.36 q -0.784,0.688 -1.792,1.088 -0.992,0.384 -2,0.384 -1.552,0 -2.448,-0.848 -0.88,-0.848 -0.912,-2.464 z"
         id="path29632" /><path
         transform="matrix(0.75,0,0,0.75,129.06856,525.26423)"
         style="font-variant-ligatures:none"
         d="m 419.84175,-2 q 1.168,0 2.112,-0.64 0.96,-0.64 1.632,-1.696 0.688,-1.072 1.056,-2.464 0.368,-1.392 0.368,-2.912 0,-2.24 -0.896,-3.36 -0.88,-1.136 -2.544,-1.136 -1.184,0 -2.144,0.64 -0.944,0.624 -1.616,1.68 -0.672,1.056 -1.04,2.448 -0.368,1.392 -0.368,2.912 0,2.24 0.88,3.392 0.88,1.136 2.56,1.136 z m -0.272,2.224 q -1.328,0 -2.432,-0.448 -1.104,-0.464 -1.904,-1.328 -0.8,-0.864 -1.248,-2.112 -0.448,-1.248 -0.448,-2.848 0,-2.048 0.64,-3.856 0.64,-1.808 1.76,-3.152 1.12,-1.36 2.624,-2.144 1.52,-0.784 3.264,-0.784 1.328,0 2.432,0.464 1.104,0.448 1.904,1.312 0.8,0.864 1.248,2.112 0.448,1.248 0.448,2.832 0,2.032 -0.64,3.84 -0.64,1.808 -1.76,3.168 -1.104,1.36 -2.624,2.16 -1.52,0.784 -3.264,0.784 z"
         id="path29634" /><path
         transform="matrix(0.75,0,0,0.75,129.06856,525.26423)"
         style="font-variant-ligatures:none"
         d="m 442.30675,-2.912 q -0.832,0.912 -1.584,1.52 -0.752,0.608 -1.504,0.976 -0.752,0.352 -1.568,0.496 -0.8,0.144 -1.728,0.144 -1.408,0 -2.496,-0.48 -1.072,-0.48 -1.808,-1.344 -0.72,-0.88 -1.104,-2.096 -0.368,-1.232 -0.368,-2.704 0,-1.968 0.608,-3.776 0.624,-1.808 1.728,-3.2 1.104,-1.392 2.624,-2.224 1.536,-0.832 3.344,-0.832 1.616,0 2.704,0.576 1.088,0.56 1.904,1.648 l -0.896,1.072 q -0.112,0.128 -0.256,0.208 -0.128,0.08 -0.304,0.08 -0.224,0 -0.448,-0.192 -0.208,-0.208 -0.56,-0.448 -0.352,-0.256 -0.88,-0.448 -0.512,-0.208 -1.328,-0.208 -1.104,0 -2.08,0.608 -0.976,0.592 -1.712,1.632 -0.736,1.04 -1.168,2.464 -0.416,1.424 -0.416,3.056 0,0.992 0.224,1.808 0.224,0.8 0.672,1.376 0.448,0.56 1.088,0.88 0.656,0.304 1.52,0.304 1.072,0 1.792,-0.32 0.736,-0.32 1.232,-0.688 0.496,-0.384 0.832,-0.704 0.352,-0.32 0.688,-0.32 0.304,0 0.544,0.272 z"
         id="path29636" /><path
         transform="matrix(0.75,0,0,0.75,129.06856,525.26423)"
         style="font-variant-ligatures:none"
         d="m 450.38925,-23.568 -1.696,13.872 h 0.48 q 0.336,0 0.544,-0.08 0.208,-0.096 0.448,-0.368 l 5.376,-5.488 q 0.224,-0.272 0.48,-0.416 0.256,-0.16 0.624,-0.16 h 2.528 l -6.256,6.352 q -0.48,0.56 -0.976,0.848 0.256,0.192 0.432,0.448 0.192,0.24 0.352,0.56 l 4.864,8 h -2.448 q -0.352,0 -0.592,-0.112 -0.224,-0.128 -0.368,-0.448 l -4.128,-6.64 q -0.192,-0.336 -0.4,-0.432 -0.208,-0.112 -0.656,-0.112 h -0.544 L 447.50925,0 h -2.816 l 2.896,-23.568 z"
         id="path29638" /><path
         transform="matrix(0.75,0,0,0.75,129.06856,525.26423)"
         style="font-variant-ligatures:none"
         d="m 475.68475,-10.976 q 1.36,0 2.4,-0.416 1.04,-0.416 1.744,-1.152 0.704,-0.752 1.072,-1.776 0.368,-1.04 0.368,-2.256 0,-0.928 -0.272,-1.664 -0.272,-0.736 -0.816,-1.248 -0.544,-0.528 -1.376,-0.8 -0.832,-0.288 -1.936,-0.288 h -3.328 l -1.184,9.6 z m 1.472,-11.952 q 1.824,0 3.168,0.432 1.344,0.432 2.208,1.232 0.88,0.8 1.312,1.92 0.432,1.12 0.432,2.496 0,1.808 -0.592,3.328 -0.592,1.504 -1.728,2.592 -1.12,1.088 -2.784,1.712 -1.648,0.608 -3.776,0.608 h -3.328 L 471.01275,0 h -2.976 l 2.8,-22.928 z"
         id="path29640" /><path
         transform="matrix(0.75,0,0,0.75,129.06856,525.26423)"
         style="font-variant-ligatures:none"
         d="m 489.22675,-11.696 q 0.64,-1.36 1.376,-2.352 0.752,-1.008 1.568,-1.568 0.816,-0.576 1.68,-0.688 0.864,-0.128 1.76,0.256 l -0.512,2.736 q -2.08,-0.832 -3.68,0.608 -1.584,1.44 -2.576,5.2 L 487.94675,0 h -2.784 l 1.952,-16.224 h 1.408 q 0.976,0 0.976,0.96 z"
         id="path29642" /><path
         transform="matrix(0.75,0,0,0.75,129.06856,525.26423)"
         style="font-variant-ligatures:none"
         d="M 501.01225,-16.208 499.06025,0 h -2.8 l 1.952,-16.208 z m 1.088,-5.088 q 0,0.416 -0.176,0.784 -0.16,0.352 -0.448,0.64 -0.272,0.272 -0.64,0.432 -0.352,0.16 -0.736,0.16 -0.368,0 -0.72,-0.16 -0.352,-0.16 -0.624,-0.432 -0.256,-0.288 -0.416,-0.64 -0.16,-0.368 -0.16,-0.784 0,-0.416 0.16,-0.784 0.16,-0.368 0.432,-0.64 0.272,-0.288 0.624,-0.448 0.352,-0.176 0.72,-0.176 0.384,0 0.736,0.16 0.368,0.16 0.64,0.448 0.272,0.272 0.432,0.656 0.176,0.368 0.176,0.784 z"
         id="path29644" /><path
         transform="matrix(0.75,0,0,0.75,129.06856,525.26423)"
         style="font-variant-ligatures:none"
         d="m 515.61925,-2.912 q -0.832,0.912 -1.584,1.52 -0.752,0.608 -1.504,0.976 -0.752,0.352 -1.568,0.496 -0.8,0.144 -1.728,0.144 -1.408,0 -2.496,-0.48 -1.072,-0.48 -1.808,-1.344 -0.72,-0.88 -1.104,-2.096 -0.368,-1.232 -0.368,-2.704 0,-1.968 0.608,-3.776 0.624,-1.808 1.728,-3.2 1.104,-1.392 2.624,-2.224 1.536,-0.832 3.344,-0.832 1.616,0 2.704,0.576 1.088,0.56 1.904,1.648 l -0.896,1.072 q -0.112,0.128 -0.256,0.208 -0.128,0.08 -0.304,0.08 -0.224,0 -0.448,-0.192 -0.208,-0.208 -0.56,-0.448 -0.352,-0.256 -0.88,-0.448 -0.512,-0.208 -1.328,-0.208 -1.104,0 -2.08,0.608 -0.976,0.592 -1.712,1.632 -0.736,1.04 -1.168,2.464 -0.416,1.424 -0.416,3.056 0,0.992 0.224,1.808 0.224,0.8 0.672,1.376 0.448,0.56 1.088,0.88 0.656,0.304 1.52,0.304 1.072,0 1.792,-0.32 0.736,-0.32 1.232,-0.688 0.496,-0.384 0.832,-0.704 0.352,-0.32 0.688,-0.32 0.304,0 0.544,0.272 z"
         id="path29646" /><path
         transform="matrix(0.75,0,0,0.75,129.06856,525.26423)"
         style="font-variant-ligatures:none"
         d="m 525.96525,-14.384 q -1.008,0 -1.856,0.416 -0.848,0.416 -1.504,1.152 -0.656,0.72 -1.12,1.712 -0.464,0.976 -0.72,2.112 2.464,-0.304 3.952,-0.688 1.488,-0.4 2.288,-0.848 0.8,-0.464 1.056,-0.992 0.256,-0.528 0.256,-1.104 0,-0.288 -0.128,-0.592 -0.128,-0.32 -0.416,-0.576 -0.272,-0.256 -0.72,-0.416 -0.448,-0.176 -1.088,-0.176 z m 4.512,11.392 q -0.816,0.848 -1.6,1.456 -0.784,0.592 -1.6,0.992 -0.8,0.4 -1.696,0.576 -0.88,0.192 -1.904,0.192 -1.392,0 -2.496,-0.464 -1.104,-0.464 -1.872,-1.312 -0.768,-0.864 -1.184,-2.08 -0.416,-1.216 -0.416,-2.72 0,-1.248 0.256,-2.48 0.272,-1.248 0.768,-2.368 0.512,-1.12 1.232,-2.08 0.736,-0.96 1.664,-1.648 0.944,-0.704 2.064,-1.104 1.136,-0.4 2.432,-0.4 1.232,0 2.128,0.352 0.896,0.352 1.472,0.896 0.576,0.544 0.848,1.2 0.288,0.656 0.288,1.248 0,1.056 -0.432,1.952 -0.432,0.88 -1.584,1.6 -1.152,0.704 -3.168,1.232 -2.016,0.528 -5.184,0.848 0,0.176 -0.016,0.352 0,0.16 0,0.336 0,2.144 0.928,3.28 0.944,1.12 2.832,1.12 0.768,0 1.36,-0.16 0.608,-0.16 1.072,-0.384 0.48,-0.24 0.832,-0.512 0.368,-0.288 0.656,-0.512 0.304,-0.24 0.56,-0.4 0.256,-0.16 0.512,-0.16 0.304,0 0.544,0.272 z"
         id="path29648" /><path
         transform="matrix(0.75,0,0,0.75,129.06856,525.26423)"
         style="font-variant-ligatures:none"
         d="m 548.80975,-10.976 q 1.36,0 2.4,-0.416 1.04,-0.416 1.744,-1.152 0.704,-0.752 1.072,-1.776 0.368,-1.04 0.368,-2.256 0,-0.928 -0.272,-1.664 -0.272,-0.736 -0.816,-1.248 -0.544,-0.528 -1.376,-0.8 -0.832,-0.288 -1.936,-0.288 h -3.328 l -1.184,9.6 z m 1.472,-11.952 q 1.824,0 3.168,0.432 1.344,0.432 2.208,1.232 0.88,0.8 1.312,1.92 0.432,1.12 0.432,2.496 0,1.808 -0.592,3.328 -0.592,1.504 -1.728,2.592 -1.12,1.088 -2.784,1.712 -1.648,0.608 -3.776,0.608 h -3.328 L 544.13775,0 h -2.976 l 2.8,-22.928 z"
         id="path29650" /><path
         transform="matrix(0.75,0,0,0.75,129.06856,525.26423)"
         style="font-variant-ligatures:none"
         d="m 562.35175,-11.696 q 0.64,-1.36 1.376,-2.352 0.752,-1.008 1.568,-1.568 0.816,-0.576 1.68,-0.688 0.864,-0.128 1.76,0.256 l -0.512,2.736 q -2.08,-0.832 -3.68,0.608 -1.584,1.44 -2.576,5.2 L 561.07175,0 h -2.784 l 1.952,-16.224 h 1.408 q 0.976,0 0.976,0.96 z"
         id="path29652" /><path
         transform="matrix(0.75,0,0,0.75,129.06856,525.26423)"
         style="font-variant-ligatures:none"
         d="m 576.90275,-14.384 q -1.008,0 -1.856,0.416 -0.848,0.416 -1.504,1.152 -0.656,0.72 -1.12,1.712 -0.464,0.976 -0.72,2.112 2.464,-0.304 3.952,-0.688 1.488,-0.4 2.288,-0.848 0.8,-0.464 1.056,-0.992 0.256,-0.528 0.256,-1.104 0,-0.288 -0.128,-0.592 -0.128,-0.32 -0.416,-0.576 -0.272,-0.256 -0.72,-0.416 -0.448,-0.176 -1.088,-0.176 z m 4.512,11.392 q -0.816,0.848 -1.6,1.456 -0.784,0.592 -1.6,0.992 -0.8,0.4 -1.696,0.576 -0.88,0.192 -1.904,0.192 -1.392,0 -2.496,-0.464 -1.104,-0.464 -1.872,-1.312 -0.768,-0.864 -1.184,-2.08 -0.416,-1.216 -0.416,-2.72 0,-1.248 0.256,-2.48 0.272,-1.248 0.768,-2.368 0.512,-1.12 1.232,-2.08 0.736,-0.96 1.664,-1.648 0.944,-0.704 2.064,-1.104 1.136,-0.4 2.432,-0.4 1.232,0 2.128,0.352 0.896,0.352 1.472,0.896 0.576,0.544 0.848,1.2 0.288,0.656 0.288,1.248 0,1.056 -0.432,1.952 -0.432,0.88 -1.584,1.6 -1.152,0.704 -3.168,1.232 -2.016,0.528 -5.184,0.848 0,0.176 -0.016,0.352 0,0.16 0,0.336 0,2.144 0.928,3.28 0.944,1.12 2.832,1.12 0.768,0 1.36,-0.16 0.608,-0.16 1.072,-0.384 0.48,-0.24 0.832,-0.512 0.368,-0.288 0.656,-0.512 0.304,-0.24 0.56,-0.4 0.256,-0.16 0.512,-0.16 0.304,0 0.544,0.272 z"
         id="path29654" /><path
         transform="matrix(0.75,0,0,0.75,129.06856,525.26423)"
         style="font-variant-ligatures:none"
         d="m 595.41525,-12.672 q -0.608,-0.864 -1.472,-1.2 -0.848,-0.352 -1.728,-0.352 -1.264,0 -2.272,0.752 -1.008,0.752 -1.728,1.952 -0.704,1.184 -1.088,2.656 -0.384,1.472 -0.384,2.896 0,1.904 0.672,2.912 0.688,0.992 1.952,0.992 0.768,0 1.552,-0.48 0.784,-0.48 1.504,-1.328 0.736,-0.864 1.36,-2.032 0.64,-1.168 1.104,-2.56 z m 4.128,-10.896 -2.896,23.568 h -1.488 q -0.56,0 -0.752,-0.288 -0.192,-0.288 -0.192,-0.704 l 0.304,-3.408 q -0.608,1.056 -1.328,1.904 -0.72,0.848 -1.52,1.456 -0.784,0.608 -1.648,0.944 -0.848,0.32 -1.728,0.32 -2.08,0 -3.232,-1.504 -1.152,-1.52 -1.152,-4.4 0,-1.312 0.272,-2.624 0.272,-1.312 0.768,-2.512 0.512,-1.2 1.216,-2.224 0.72,-1.04 1.6,-1.792 0.88,-0.752 1.888,-1.184 1.024,-0.432 2.144,-0.432 1.2,0 2.176,0.48 0.992,0.464 1.68,1.328 l 1.104,-8.928 z"
         id="path29656" /><path
         transform="matrix(0.75,0,0,0.75,129.06856,525.26423)"
         style="font-variant-ligatures:none"
         d="M 605.82475,-16.208 603.87275,0 h -2.8 l 1.952,-16.208 z m 1.088,-5.088 q 0,0.416 -0.176,0.784 -0.16,0.352 -0.448,0.64 -0.272,0.272 -0.64,0.432 -0.352,0.16 -0.736,0.16 -0.368,0 -0.72,-0.16 -0.352,-0.16 -0.624,-0.432 -0.256,-0.288 -0.416,-0.64 -0.16,-0.368 -0.16,-0.784 0,-0.416 0.16,-0.784 0.16,-0.368 0.432,-0.64 0.272,-0.288 0.624,-0.448 0.352,-0.176 0.72,-0.176 0.384,0 0.736,0.16 0.368,0.16 0.64,0.448 0.272,0.272 0.432,0.656 0.176,0.368 0.176,0.784 z"
         id="path29658" /><path
         transform="matrix(0.75,0,0,0.75,129.06856,525.26423)"
         style="font-variant-ligatures:none"
         d="m 620.43175,-2.912 q -0.832,0.912 -1.584,1.52 -0.752,0.608 -1.504,0.976 -0.752,0.352 -1.568,0.496 -0.8,0.144 -1.728,0.144 -1.408,0 -2.496,-0.48 -1.072,-0.48 -1.808,-1.344 -0.72,-0.88 -1.104,-2.096 -0.368,-1.232 -0.368,-2.704 0,-1.968 0.608,-3.776 0.624,-1.808 1.728,-3.2 1.104,-1.392 2.624,-2.224 1.536,-0.832 3.344,-0.832 1.616,0 2.704,0.576 1.088,0.56 1.904,1.648 l -0.896,1.072 q -0.112,0.128 -0.256,0.208 -0.128,0.08 -0.304,0.08 -0.224,0 -0.448,-0.192 -0.208,-0.208 -0.56,-0.448 -0.352,-0.256 -0.88,-0.448 -0.512,-0.208 -1.328,-0.208 -1.104,0 -2.08,0.608 -0.976,0.592 -1.712,1.632 -0.736,1.04 -1.168,2.464 -0.416,1.424 -0.416,3.056 0,0.992 0.224,1.808 0.224,0.8 0.672,1.376 0.448,0.56 1.088,0.88 0.656,0.304 1.52,0.304 1.072,0 1.792,-0.32 0.736,-0.32 1.232,-0.688 0.496,-0.384 0.832,-0.704 0.352,-0.32 0.688,-0.32 0.304,0 0.544,0.272 z"
         id="path29660" /><path
         transform="matrix(0.75,0,0,0.75,129.06856,525.26423)"
         style="font-variant-ligatures:none"
         d="m 624.13025,-3.056 q 0,-0.096 0,-0.24 0,-0.16 0.016,-0.448 0.032,-0.288 0.08,-0.752 0.064,-0.464 0.16,-1.216 l 0.992,-8.112 h -1.808 q -0.224,0 -0.368,-0.144 -0.128,-0.16 -0.096,-0.48 l 0.128,-1.136 2.496,-0.336 1.216,-5.008 q 0.08,-0.24 0.24,-0.384 0.176,-0.16 0.432,-0.16 h 1.488 l -0.688,5.584 h 4.256 l -0.24,2.064 h -4.272 l -0.976,7.968 q -0.08,0.656 -0.128,1.056 -0.048,0.4 -0.08,0.64 -0.016,0.24 -0.032,0.336 0,0.096 0,0.144 0,0.816 0.384,1.216 0.384,0.384 1.024,0.384 0.432,0 0.736,-0.112 0.32,-0.128 0.56,-0.272 0.24,-0.144 0.4,-0.256 0.16,-0.128 0.272,-0.128 0.144,0 0.208,0.064 0.08,0.064 0.144,0.208 l 0.608,1.36 q -0.784,0.688 -1.792,1.088 -0.992,0.384 -2,0.384 -1.552,0 -2.448,-0.848 -0.88,-0.848 -0.912,-2.464 z"
         id="path29662" /><path
         transform="matrix(0.75,0,0,0.75,129.06856,525.26423)"
         style="font-variant-ligatures:none"
         d="M 639.13725,-16.208 637.18525,0 h -2.8 l 1.952,-16.208 z m 1.088,-5.088 q 0,0.416 -0.176,0.784 -0.16,0.352 -0.448,0.64 -0.272,0.272 -0.64,0.432 -0.352,0.16 -0.736,0.16 -0.368,0 -0.72,-0.16 -0.352,-0.16 -0.624,-0.432 -0.256,-0.288 -0.416,-0.64 -0.16,-0.368 -0.16,-0.784 0,-0.416 0.16,-0.784 0.16,-0.368 0.432,-0.64 0.272,-0.288 0.624,-0.448 0.352,-0.176 0.72,-0.176 0.384,0 0.736,0.16 0.368,0.16 0.64,0.448 0.272,0.272 0.432,0.656 0.176,0.368 0.176,0.784 z"
         id="path29664" /><path
         transform="matrix(0.75,0,0,0.75,129.06856,525.26423)"
         style="font-variant-ligatures:none"
         d="m 647.90425,-2 q 1.168,0 2.112,-0.64 0.96,-0.64 1.632,-1.696 0.688,-1.072 1.056,-2.464 0.368,-1.392 0.368,-2.912 0,-2.24 -0.896,-3.36 -0.88,-1.136 -2.544,-1.136 -1.184,0 -2.144,0.64 -0.944,0.624 -1.616,1.68 -0.672,1.056 -1.04,2.448 -0.368,1.392 -0.368,2.912 0,2.24 0.88,3.392 0.88,1.136 2.56,1.136 z m -0.272,2.224 q -1.328,0 -2.432,-0.448 -1.104,-0.464 -1.904,-1.328 -0.8,-0.864 -1.248,-2.112 -0.448,-1.248 -0.448,-2.848 0,-2.048 0.64,-3.856 0.64,-1.808 1.76,-3.152 1.12,-1.36 2.624,-2.144 1.52,-0.784 3.264,-0.784 1.328,0 2.432,0.464 1.104,0.448 1.904,1.312 0.8,0.864 1.248,2.112 0.448,1.248 0.448,2.832 0,2.032 -0.64,3.84 -0.64,1.808 -1.76,3.168 -1.104,1.36 -2.624,2.16 -1.52,0.784 -3.264,0.784 z"
         id="path29666" /><path
         transform="matrix(0.75,0,0,0.75,129.06856,525.26423)"
         style="font-variant-ligatures:none"
         d="m 662.30525,-12.112 q 1.296,-2.144 2.928,-3.232 1.632,-1.104 3.36,-1.104 1.024,0 1.792,0.416 0.784,0.4 1.264,1.184 0.496,0.784 0.672,1.936 0.176,1.136 0,2.592 L 671.10525,0 h -2.832 l 1.216,-10.32 q 0.224,-1.92 -0.24,-2.832 -0.464,-0.928 -1.712,-0.928 -0.768,0 -1.568,0.416 -0.784,0.416 -1.52,1.184 -0.736,0.768 -1.376,1.856 -0.624,1.072 -1.072,2.4 L 661.07325,0 h -2.848 l 1.952,-16.224 h 1.408 q 0.96,0 0.96,0.96 z"
         id="path29668" /></g></g><path
     id="path46"
     style="mix-blend-mode: screen; opacity: 0.4"
     d="m512.18555 262.96289c-0.19474-0.01-0.45118-0.00297-0.56836 0.01563-0.11717 0.0188-0.31407 0.0673-0.4375 0.10742-0.12385 0.04-0.35228 0.13827-0.50781 0.21875-0.15554 0.0809-0.41578 0.27204-0.58008 0.42383-0.16388 0.15137-0.38544 0.40726-0.49219 0.57031-0.10634 0.16263-0.24157 0.44555-0.30078 0.62695-0.0738 0.22476-1.75277 9.81963-5.29102 30.24805-2.85061 16.45565-5.19397 29.93518-5.20898 29.95312-0.015 0.0179-1.89984-4.88079-4.1875-10.88476-2.28808-6.00396-4.21986-11.04649-4.29492-11.20703-0.0755-0.16055-0.22347-0.40788-0.32813-0.54883-0.10467-0.14094-0.3059-0.3527-0.44726-0.47071-0.14137-0.11759-0.38983-0.28042-0.55079-0.36132-0.16096-0.0813-0.4324-0.18432-0.60546-0.22852-0.20475-0.0521-0.45646-0.08008-0.71875-0.08008-0.26521 0-0.51515 0.02823-0.72657 0.08203-0.17681 0.0455-0.4491 0.15028-0.60547 0.23243-0.15596 0.0822-0.3939 0.23616-0.52734 0.34375-0.13386 0.108-0.32234 0.29943-0.41992 0.42578-0.0976 0.12593-2.60882 4.05759-5.58203 8.73633-2.9728 4.67874-5.41817 8.51903-5.4336 8.5332-0.0159 0.0142-2.27079-0.99453-5.01171-2.24219-2.74053-1.24725-5.11485-2.31046-5.2754-2.36133-0.24186-0.0771-0.38487-0.09349-0.83398-0.09179-0.48164 0.002-0.57851 0.0161-0.875 0.11914-0.18348 0.0638-0.42998 0.17073-0.54883 0.23828-0.11843 0.0675-0.32079 0.20895-0.44922 0.31445-0.12885 0.10592-0.32181 0.30716-0.42773 0.44727-0.10634 0.14011-0.24437 0.36825-0.3086 0.50586-0.0642 0.13761-2.87829 7.49279-6.2539 16.3457-4.56282 11.9679-6.15182 16.18158-6.19727 16.42969-0.038 0.20641-0.05316 0.45664-0.03906 0.65429 0.0121 0.17557 0.04361 0.4086 0.07031 0.51953 0.0267 0.11134 0.12101 0.35825 0.20899 0.54883 0.088 0.19098 0.25475 0.46846 0.37109 0.61524 0.11676 0.14637 0.32851 0.35223 0.4707 0.45898 0.1422 0.10675 0.36558 0.24817 0.4961 0.31445 0.13094 0.0659 0.38556 0.16132 0.56445 0.21094 0.2331 0.0647 0.4432 0.08985 0.74219 0.08985s0.50909-0.02505 0.74219-0.08985c0.17889-0.0496 0.43156-0.14503 0.5625-0.21094 0.13052-0.0663 0.35389-0.2077 0.49609-0.31445s0.35184-0.31092 0.46484-0.45312c0.11259-0.1422 0.26127-0.37021 0.33008-0.50782 0.0692-0.13761 2.61535-6.77963 5.6582-14.75976 3.04328-7.98012 5.5447-14.52967 5.56055-14.55469 0.0188-0.03 1.70965 0.71709 4.82422 2.13281 3.18129 1.44615 4.89061 2.20202 5.07617 2.24414 0.15346 0.035 0.46274 0.0625 0.6875 0.0625 0.22476-0.00041 0.53082-0.02935 0.67969-0.06445 0.14929-0.035 0.42199-0.13691 0.60547-0.22656 0.18348-0.0892 0.43363-0.2459 0.55664-0.34766 0.12302-0.10216 0.30141-0.28014 0.39648-0.39648 0.0951-0.11634 2.21689-3.43084 4.7168-7.36524 2.49992-3.93439 4.55738-7.15234 4.57031-7.15234 0.0129 0 2.2998 5.97036 5.08203 13.26953 2.78222 7.29917 5.12419 13.40026 5.20508 13.55664 0.0813 0.15679 0.27667 0.42361 0.43555 0.59375 0.16054 0.17222 0.42109 0.39072 0.58789 0.49414 0.1643 0.10216 0.44933 0.23852 0.63281 0.30274l0.33399 0.11523 0.5625 0.00195 0.5625 0.00196 0.36914-0.1211c0.211-0.0692 0.49783-0.20548 0.66797-0.3164 0.16388-0.10716 0.42453-0.33194 0.58007-0.5 0.18598-0.20099 0.34038-0.42227 0.44922-0.64453 0.0909-0.18556 0.19097-0.44048 0.22266-0.56641 0.0313-0.12635 2.21152-12.66516 4.8457-27.86523 2.63419-15.20007 4.80041-27.63672 4.8125-27.63672 0.0121 0.00042 2.03678 9.51887 4.5 21.15234 2.46322 11.63388 4.51257 21.29262 4.55469 21.46484 0.0425 0.1718 0.1517 0.46301 0.24219 0.64649 0.0909 0.18348 0.24239 0.42634 0.33789 0.54101 0.0951 0.11468 0.28046 0.29965 0.41015 0.41016 0.12927 0.1105 0.38488 0.27404 0.56836 0.36328 0.18348 0.0892 0.45465 0.18958 0.60352 0.22461 0.14887 0.035 0.4601 0.06445 0.68945 0.06445s0.53863-0.02935 0.6875-0.06445c0.14887-0.035 0.42199-0.1369 0.60547-0.22656 0.18348-0.0892 0.43362-0.24591 0.55664-0.34766 0.12301-0.10217 0.30141-0.28056 0.39649-0.39648 0.0951-0.11552 1.65353-2.61497 3.46289-5.55274 1.80978-2.93818 3.30209-5.32694 3.31836-5.30859 0.0163 0.0183 2.91637 5.26911 6.44336 11.66797 3.52699 6.39887 6.47335 11.71884 6.54882 11.82226 0.0755 0.103 0.2372 0.28391 0.35938 0.40235 0.12218 0.118 0.33869 0.28995 0.48047 0.38086 0.1422 0.0909 0.42317 0.21927 0.625 0.28515 0.3286 0.108 0.42518 0.1211 0.91015 0.1211 0.48581 0 0.57947-0.0127 0.91016-0.1211 0.21641-0.0709 0.49367-0.20327 0.66797-0.31836 0.17098-0.11301 0.52202-0.42704 0.82226-0.73437 0.28815-0.29524 2.60222-2.71848 5.14258-5.38477 2.54037-2.6663 4.6347-4.84765 4.6543-4.84765s2.11393 2.18135 4.6543 4.84765c2.54036 2.66629 4.85442 5.08953 5.14257 5.38477 0.30899 0.31609 0.6491 0.62097 0.83008 0.74023 0.16888 0.11175 0.46009 0.25428 0.64649 0.31641 0.30441 0.10175 0.39965 0.11328 0.92383 0.11328 0.52417 0 0.61746-0.0116 0.92187-0.11328 0.1864-0.0621 0.4776-0.20354 0.64648-0.31445 0.16889-0.11093 0.4329-0.33501 0.58594-0.49805 0.18807-0.20017 0.33218-0.40781 0.44727-0.64258 0.0934-0.19099 0.19823-0.4578 0.23242-0.59375 0.0346-0.13594 0.07264-0.38861 0.08594-0.5625 0.0154-0.20016 0.00304-0.43883-0.03516-0.65234-0.0338-0.18515-0.10847-0.4531-0.16602-0.5957-0.0575-0.14221-0.16699-0.36305-0.24414-0.49024-0.0888-0.14761-2.38808-2.59124-6.34375-6.74414-3.41148-3.58203-6.3158-6.60855-6.45507-6.72656-0.13887-0.11802-0.35972-0.27257-0.49024-0.3418-0.1301-0.0688-0.37661-0.16887-0.54883-0.22266-0.26355-0.0822-0.39883-0.09625-0.85547-0.09375-0.46703 0.002-0.58779 0.0164-0.86718 0.10938-0.17848 0.0592-0.45609 0.188-0.61914 0.28516-0.16304 0.0967-0.42118 0.29939-0.57422 0.45117-0.15262 0.15221-2.34926 2.4503-4.88086 5.10742l-4.60352 4.83008-0.0625-0.11719c-0.0342-0.0655-3.01615-5.47766-6.62695-12.02539-3.6108-6.54815-6.62178-11.9986-6.69141-12.11328-0.0701-0.11467-0.199-0.2963-0.28906-0.4043-0.0901-0.10801-0.28009-0.28428-0.42187-0.39062-0.14136-0.10675-0.34302-0.23653-0.44727-0.28907-0.10383-0.0529-0.31053-0.13746-0.45898-0.1875-0.18515-0.0625-0.41411-0.0987-0.72852-0.11328-0.32943-0.015-0.54573-0.00198-0.76758 0.04492-0.16972 0.0363-0.43122 0.12373-0.58008 0.19336-0.14887 0.0696-0.38738 0.20992-0.53125 0.3125-0.14344 0.10217-0.35196 0.28813-0.46289 0.41407-0.11301 0.1276-1.39179 2.16395-2.89257 4.60546-1.4791 2.40653-2.70109 4.36267-2.71485 4.34766-0.0137-0.0146-2.42171-11.34993-5.35156-25.1914-2.93026-13.84148-5.3734-25.30866-5.42969-25.48047-0.0563-0.17222-0.18577-0.4448-0.28711-0.60743-0.10091-0.16305-0.324-0.43-0.49414-0.59179-0.21809-0.20683-0.41105-0.3428-0.65625-0.46289-0.1914-0.0938-0.462-0.19935-0.59961-0.23438-0.13761-0.035-0.40836-0.07243-0.60351-0.08203zm-0.02149 100.2793c-44.49807-0.006-53.87715 0.00303-54.08398 0.04883-0.13761 0.0304-0.3502 0.0926-0.4707 0.14062-0.12052 0.0476-0.3376 0.16328-0.48438 0.25586-0.14637 0.0926-0.39959 0.30726-0.56055 0.47656-0.21642 0.2281-0.34148 0.40911-0.48242 0.69727-0.12218 0.25019-0.21556 0.51575-0.25976 0.74219-0.0484 0.24727-0.06278 0.46763-0.04688 0.73242 0.015 0.24853 0.0618 0.49366 0.13477 0.71094 0.0613 0.18223 0.16822 0.43125 0.23828 0.55468 0.0705 0.12301 0.21874 0.33293 0.33008 0.4668 0.11092 0.13343 0.32168 0.32823 0.46679 0.43164 0.14512 0.10384 0.38446 0.24523 0.53125 0.31445 0.14678 0.0692 0.40703 0.15835 0.58008 0.19922l0.31445 0.07422h107.37696l0.31445-0.07422c0.17305-0.0409 0.43525-0.13 0.58203-0.19922 0.14678-0.0692 0.38613-0.21061 0.53125-0.31445 0.14512-0.10341 0.35393-0.2982 0.46484-0.43164 0.11136-0.13386 0.25961-0.34379 0.33008-0.4668 0.07-0.12343 0.1767-0.3688 0.23633-0.54687 0.0692-0.20599 0.11893-0.46491 0.13477-0.71094 0.0184-0.27939 0.00498-0.48461-0.04492-0.74023-0.04421-0.22685-0.13758-0.49199-0.25977-0.74219-0.14135-0.28898-0.26629-0.46945-0.48438-0.69922-0.16221-0.17055-0.4268-0.39323-0.58984-0.49414-0.16264-0.10133-0.44738-0.23656-0.63086-0.30078l-0.33398-0.11719-53.83399-0.00781zm63.24024 49.10156c-3.05331 0-4.69201 1.38832-4.91407 4.16406l-0.58203 4.33008c-0.3886 3.16434 0.99973 4.74609 4.16407 4.74609h6.16211c2.88675 0 4.5235-1.38832 4.9121-4.16406l0.58399-4.33008c0.33309-3.16434-1.11023-4.74609-4.33008-4.74609h-5.99609zm186.22265 0c-3.0533 0-4.69005 1.38832-4.91211 4.16406l-0.58398 4.33008c-0.3886 3.16434 0.99973 4.74609 4.16406 4.74609h6.16211c2.88677 0 4.52546-1.38832 4.91406-4.16406l0.58203-4.33008c0.33309-3.16434-1.11022-4.74609-4.33007-4.74609h-5.9961zm-327.02148 1.74805l-8.16016 58.29101h15.15625l1.83203-12.82422 0.08203-1.24804c1.60994-0.55515 3.38707-1.2228 5.33008-2l7.07813 16.07226h15.65625l-7.66211-16.32031c-0.99927-2.22059-2.35913-4.0262-4.08008-5.41406 7.27242-4.99632 11.90772-11.5472 13.90625-19.65235h-15.48828c-0.77721 3.33088-2.55435 6.49635-5.33008 9.49414-2.72022 2.9978-5.96719 5.52408-9.74219 7.57813 1.66544-3.49743 2.77494-6.91326 3.33008-10.24414l3.24805-23.73242h-15.15625zm-125.55469 5.74609l-1.66601 11.1582-7.49415 0.41602-1.16601 9.07812h7.24414l-3.08008 20.98438c-0.55514 3.66397 0.22247 6.57907 2.33203 8.74414 2.16508 2.16507 5.30012 3.24609 9.40821 3.24609 5.27389 0 9.52233-0.6107 12.74218-1.83203l-0.75-10.07617h-5.16406c-1.44338 0-2.35749-0.19342-2.74609-0.58203-0.38861-0.44411-0.47206-1.33171-0.25-2.66406l2.49804-17.82032h10.65821l1.33203-9.49414h-10.57617l1.58398-11.1582h-14.90625zm-34.48437 9.99219c-6.60625 0-11.3515 0.88954-14.23829 2.66601-2.88675 1.77647-4.58045 4.57965-5.08007 8.41016-0.94376 6.77279 1.99786 11.32463 8.82617 13.65625l9.24414 3.16406c2.05404 0.66618 3.35696 1.16692 3.91211 1.5 0.55517 0.33309 0.80553 0.80342 0.75 1.41406-0.11103 0.77722-0.88865 1.30642-2.33203 1.58399-1.38787 0.27757-4.32949 0.41602-8.82617 0.41601h-7.57813c-3.33088-0.05549-5.32797-0.08398-5.99414-0.08398l-1.25 9.07617c6.66176 1.1103 13.26763 1.66602 19.81836 1.66602 6.71728 0 11.6864-0.80414 14.90625-2.41406 3.21985-1.66544 5.13543-4.96935 5.74609-9.91016 0.77721-6.32867-2.24786-10.60363-9.07617-12.82422l-9.57812-3.08008c-1.72096-0.55514-2.88543-1.02741-3.4961-1.41601-0.55516-0.38861-0.80553-0.91586-0.75-1.58203 0.11103-0.66618 0.63829-1.08346 1.58203-1.25 0.94376-0.16655 2.99778-0.25 6.16211-0.25 3.44192 0 8.77138 0.0569 15.98828 0.16796l1.33204-9.07812c-5.38493-1.11029-12.07425-1.721-20.06836-1.83203zm84.17968 0c-8.04963 0-13.87982 1.58371-17.48828 4.74804-3.60845 3.16434-5.96783 8.68723-7.07812 16.57032-1.16581 7.9386-0.10935 13.6284 3.16601 17.07031 3.33088 3.44191 9.02069 5.16406 17.07032 5.16406 7.88308 0 13.62787-1.55524 17.23632-4.66406 3.66398-3.16434 6.05182-8.63224 7.16211-16.4043 1.16581-8.04962 0.13783-13.79636-3.08203-17.23828-3.21984-3.49742-8.88118-5.24609-16.98633-5.24609zm48.59375 0c-7.49448 0-12.96238 1.63869-16.40429 4.91406-3.3864 3.21985-5.60733 8.65929-6.66211 16.32031-1.1103 7.82758-0.0558 13.51933 3.16406 17.07227 3.27537 3.49742 8.66177 5.24609 16.15625 5.24609 6.93934 0 12.71259-0.99952 17.32031-2.99804l-1.08398-9.74415c-3.83052 0.44413-8.32737 0.66797-13.49024 0.66797-3.0533 0-5.02387-0.61071-5.91211-1.83203-0.83272-1.22132-0.97116-3.85953-0.41601-7.91211 0.49963-3.71948 1.38917-6.24577 2.66601-7.57812 1.27684-1.33236 3.46931-1.99805 6.57813-1.99805l13.57226 0.08399 2.08204-9.24415c-4.66324-1.99851-10.51995-2.99804-17.57032-2.99804zm153.3711 0c-5.44044 0-11.10372 2.58127-16.98828 7.74414l-0.25-6.57813h-11.82422l-5.83008 41.38672h15.24023l3.4961-25.73047c5.49595-1.94301 9.57748-2.91406 12.24219-2.91406h3.49609l3.24805-13.9082h-2.83008zm50.41797 0c-7.49448 0-12.96239 1.63869-16.4043 4.91406-3.38639 3.21985-5.60733 8.65929-6.66211 16.32031-1.11029 7.82758-0.0558 13.51933 3.16406 17.07227 3.27537 3.49742 8.65981 5.24609 16.1543 5.24609 6.93933 0 12.71455-0.99952 17.32226-2.99804l-1.08398-9.74415c-3.83052 0.44413-8.32737 0.66797-13.49023 0.66797-3.05332 0-5.02388-0.61071-5.91211-1.83203-0.83272-1.22132-0.97117-3.85953-0.41602-7.91211 0.49963-3.71948 1.38722-6.24577 2.66406-7.57812 1.27684-1.33236 3.47126-1.99805 6.58008-1.99805l13.57227 0.08399 2.08203-9.24415c-4.66323-1.99851-10.51995-2.99804-17.57031-2.99804zm44.68164 0c-7.88309 0-13.7398 1.50027-17.57032 4.49804-3.775 2.9423-6.13437 8.54863-7.07812 16.82032-0.83273 7.55 0.30524 13.15634 3.41406 16.82031 3.10882 3.60845 8.93902 5.41406 17.48828 5.41406 7.71654 0 14.04357-1.11144 18.98438-3.33203l-0.99805-9.41016c-5.71801 0.66618-11.21438 1.00001-16.48828 1-2.49816 0-4.2753-0.33381-5.33008-1-1.05476-0.72167-1.60853-2.13653-1.66406-4.24609l11.24023-0.83203c5.71801-0.44412 9.883-1.41712 12.49219-2.91602 2.66471-1.55441 4.27493-4.19067 4.83008-7.91015 0.72169-4.99633-0.36129-8.71554-3.24805-11.15821-2.88676-2.49815-8.2447-3.74804-16.07226-3.74804zm69.63476 0c-3.16433 0-5.74756 0.11192-7.74609 0.33398-1.94301 0.16655-4.02356 0.63882-6.24414 1.41602-2.16508 0.7772-3.91374 1.91516-5.2461 3.41406-1.27683 1.44338-2.47173 3.46893-3.58203 6.07813-1.11029 2.60918-1.96942 5.82964-2.58007 9.66015-1.16581 7.82758-0.86046 13.6293 0.91601 17.4043 1.77647 3.77499 5.41225 5.52367 10.9082 5.24609 7.10588-0.33308 12.60225-3.27666 16.48829-8.82812v7.82812h11.74023l5.66406-39.9707c-1.99853-0.61066-5.164-1.1929-9.49414-1.74805-4.33015-0.55514-7.93745-0.83398-10.82422-0.83398zm-215.40429 0.16797c-5.77353 0-11.40835 2.85816-16.9043 8.57617v-7.57813h-11.99024l-7.91015 56.79297h15.15429l1.25-7.57812c0.38863-2.66471 0.58204-5.27445 0.58204-7.82813 3.88603 0.77721 7.82716 1.16602 11.82422 1.16602 2.72021 0 5.0246-0.27689 6.9121-0.83203 1.94302-0.49964 3.80361-1.47264 5.58008-2.91602 1.77647-1.44339 3.21979-3.58086 4.33008-6.41211 1.16581-2.83124 2.02493-6.41204 2.58008-10.74219 1.99853-15.09999-1.80416-22.64843-11.4082-22.64843zm58.45117 0.99804l-5.7461 41.38672h15.07227l5.74609-41.38672h-15.07226zm186.22461 0l-5.7461 41.38672h15.07227l5.74609-41.38672h-15.07226zm-99.15625 9.07813c2.10956-0.0555 3.49789 0.13791 4.16406 0.58203 0.66618 0.3886 0.94306 1.24968 0.83203 2.58203-0.16654 1.66544-0.72031 2.8034-1.66406 3.41406-0.88824 0.55515-2.36002 0.91548-4.41406 1.08204l-6.99414 0.66601c0.66615-3.33088 1.52529-5.52334 2.58007-6.57812 1.1103-1.11028 2.94242-1.69252 5.4961-1.74805zm69.13476 0.08203l4.91211 0.08398-1.99804 14.07227c-3.55296 4.66323-6.82838 7.07759-9.82618 7.24414-1.72095 0.0555-2.72047-0.58171-2.99804-1.91406-0.27758-1.33236-0.0557-4.3859 0.66601-9.16016 0.61066-4.38566 1.55519-7.18883 2.83203-8.41015 1.33236-1.27684 3.46984-1.91602 6.41211-1.91602zm-366.19922 0.33398c2.55368 0 4.13544 0.69417 4.7461 2.08204 0.61064 1.38786 0.58221 4.24602-0.08399 8.57617-0.66618 4.66323-1.55377 7.77176-2.66406 9.32617s-2.96894 2.33203-5.57812 2.33203c-2.66471 0-4.33187-0.66569-4.99805-1.99805-0.61066-1.38786-0.61066-4.2195 0-8.49414 0.72169-4.82978 1.63775-7.99329 2.74805-9.49218 1.11029-1.55442 3.05434-2.33204 5.83007-2.33204zm145.13282 1.33204c1.55441 0 2.49894 0.72067 2.83203 2.16406 0.33308 1.38786 0.19464 4.35795-0.41602 8.91015-0.66617 4.71876-1.52725 7.71731-2.58203 8.99414-0.99927 1.27686-3.19173 1.91602-6.57812 1.91602h-4.9961l2.16406-16.82226c3.55294-3.44192 6.74493-5.16211 9.57618-5.16211zm180.34179 16.40429c-3.38639 0-5.32849 1.6387-5.82812 4.91406l-0.5 3.7461c-0.44412 3.66397 1.22109 5.49609 4.99609 5.49609h3.24805c3.44191 0 5.35749-1.63674 5.74609-4.91211l0.49805-3.66406c0.27757-1.77647-0.0278-3.13828-0.91602-4.08203-0.88824-0.99927-2.24809-1.49805-4.08007-1.49805h-3.16407zm-219.21093 49.36133l-2.17188 17.67578h2.11328l0.70703-5.80664h0.40821c0.224 0 0.38818 0.02799 0.49218 0.08399 0.104 0.048 0.20476 0.15426 0.30079 0.32226l3.0957 4.98047c0.072 0.16 0.16339 0.27194 0.27539 0.33594 0.12 0.056 0.26736 0.08398 0.44336 0.08398h1.83594l-3.64649-6c-0.08-0.16-0.16962-0.29992-0.26562-0.41992-0.088-0.128-0.19427-0.23994-0.32227-0.33594 0.248-0.144 0.49047-0.35476 0.73047-0.63476l4.69336-4.76563h-1.89649c-0.184 0-0.34075 0.0411-0.46875 0.1211-0.128 0.072-0.24737 0.1765-0.35937 0.3125l-4.03125 4.11523c-0.12 0.136-0.23194 0.22739-0.33594 0.27539-0.104 0.04-0.2402 0.06055-0.4082 0.06055h-0.36133l1.27344-10.4043h-2.10156zm111.8789 0l-0.82812 6.69727c-0.344-0.432-0.76377-0.7641-1.25977-0.9961-0.488-0.24-1.03281-0.36133-1.63281-0.36133-0.56 0-1.09542 0.10822-1.60742 0.32422-0.504 0.216-0.97602 0.51268-1.41602 0.88867-0.44 0.376-0.84117 0.82376-1.20117 1.34376-0.352 0.51198-0.65611 1.06796-0.91211 1.66796-0.248 0.6-0.44017 1.22877-0.57617 1.88477s-0.20313 1.3108-0.20313 1.9668c0 1.44 0.28728 2.54078 0.86328 3.30078 0.576 0.752 1.38383 1.12695 2.42383 1.12695 0.44 0 0.87288-0.0802 1.29688-0.24023 0.432-0.168 0.84433-0.40303 1.23633-0.70703 0.4-0.304 0.78062-0.6678 1.14062-1.0918s0.69014-0.89974 0.99414-1.42774l-0.22656 2.55469c0 0.208 0.0466 0.3853 0.14258 0.5293 0.096 0.144 0.28445 0.21484 0.56445 0.21484h1.11719l2.17187-17.67578h-2.08789zm-72.48242 0.16797c-0.184 0-0.36502 0.0448-0.54102 0.13281-0.176 0.08-0.33079 0.19194-0.46679 0.33594-0.136 0.136-0.24422 0.29647-0.32422 0.48047s-0.12108 0.37989-0.1211 0.58789c0.00001 0.208 0.0411 0.40389 0.1211 0.58789 0.08 0.176 0.1845 0.33449 0.3125 0.47852 0.136 0.136 0.2908 0.24421 0.4668 0.32421s0.35701 0.1211 0.54101 0.1211c0.192 0 0.37478-0.0411 0.55078-0.1211 0.184-0.08 0.34447-0.18823 0.48047-0.32421 0.144-0.14401 0.25594-0.30252 0.33594-0.47852 0.088-0.184 0.13281-0.37989 0.13281-0.58789s-0.0448-0.40389-0.13281-0.58789c-0.08-0.192-0.18822-0.35619-0.32422-0.49219-0.136-0.144-0.29647-0.25594-0.48047-0.33594-0.176-0.08-0.35878-0.12109-0.55078-0.12109zm78.60937 0c-0.18398 0-0.36501 0.0448-0.54101 0.13281-0.176 0.08-0.3308 0.19194-0.4668 0.33594-0.136 0.136-0.24422 0.29647-0.32422 0.48047s-0.12109 0.37989-0.12109 0.58789 0.0411 0.40389 0.12109 0.58789c0.08 0.176 0.1845 0.33449 0.3125 0.47852 0.136 0.136 0.2908 0.24421 0.4668 0.32421s0.35702 0.1211 0.54102 0.1211c0.192 0 0.37478-0.0411 0.55078-0.1211 0.184-0.08 0.34447-0.18823 0.48047-0.32421 0.144-0.14401 0.25593-0.30252 0.33593-0.47852 0.088-0.184 0.13282-0.37989 0.13282-0.58789s-0.0448-0.40389-0.13282-0.58789c-0.08-0.192-0.18824-0.35619-0.32421-0.49219-0.136-0.144-0.29647-0.25594-0.48047-0.33594-0.176-0.08-0.35876-0.12109-0.55079-0.12109zm24.98438 0c-0.184 0-0.36502 0.0448-0.54102 0.13281-0.176 0.08-0.33079 0.19194-0.46679 0.33594-0.136 0.136-0.24422 0.29647-0.32422 0.48047s-0.12109 0.37989-0.12109 0.58789 0.0411 0.40389 0.12109 0.58789c0.08 0.176 0.1845 0.33449 0.3125 0.47852 0.136 0.136 0.2908 0.24421 0.4668 0.32421s0.35701 0.1211 0.54101 0.1211c0.192 0 0.37478-0.0411 0.55078-0.1211 0.184-0.08 0.34447-0.18823 0.48047-0.32421 0.144-0.14401 0.25594-0.30252 0.33594-0.47852 0.088-0.184 0.13281-0.37989 0.13281-0.58789s-0.0448-0.40389-0.13281-0.58789c-0.08-0.192-0.18822-0.35619-0.32422-0.49219-0.136-0.144-0.29647-0.25594-0.48047-0.33594-0.176-0.08-0.35878-0.12109-0.55078-0.12109zm-181.53711 0.14453c-0.864 0-1.64384 0.14736-2.33984 0.44336-0.688 0.296-1.27196 0.69345-1.75196 1.18945s-0.84751 1.06685-1.10351 1.71485-0.38477 1.32334-0.38477 2.02734c0 0.632 0.0971 1.16566 0.28907 1.59766 0.19198 0.432 0.44385 0.79579 0.75585 1.09179s0.66836 0.53847 1.06836 0.73047 0.80666 0.36558 1.22266 0.51758 0.82461 0.30308 1.22461 0.45508c0.4 0.144 0.75636 0.31562 1.06836 0.51562s0.56386 0.44814 0.75586 0.74414c0.192 0.288 0.28711 0.6518 0.28711 1.0918 0 0.528-0.084 1.01313-0.25196 1.45313-0.168 0.432-0.40675 0.80323-0.71875 1.11523-0.304 0.312-0.6809 0.55642-1.1289 0.73242-0.44 0.176-0.93628 0.26367-1.48828 0.26367-0.6 0-1.1-0.0877-1.5-0.26367-0.4-0.184-0.73582-0.38361-1.00782-0.59961-0.272-0.224-0.49587-0.42361-0.67187-0.59961-0.176-0.184-0.34019-0.27734-0.49219-0.27734-0.112 0-0.2165 0.02798-0.3125 0.08398s-0.17623 0.1288-0.24023 0.2168l-0.79102 1.06836c0.52 0.688 1.18047 1.23458 1.98047 1.64258 0.808 0.4 1.72405 0.60156 2.74805 0.60156 0.928 0 1.76381-0.16047 2.50781-0.48047s1.37648-0.75287 1.89648-1.29687c0.528-0.544 0.93094-1.17453 1.21094-1.89453 0.28-0.728 0.41992-1.50041 0.41992-2.31641 0-0.592-0.0951-1.09572-0.28711-1.51172-0.192-0.416-0.44386-0.77236-0.75585-1.06836-0.31201-0.296-0.67208-0.54414-1.08008-0.74414-0.4-0.2-0.80861-0.38101-1.22461-0.54101-0.416-0.168-0.82833-0.32652-1.23633-0.47852-0.4-0.16-0.75636-0.34102-1.06836-0.54102-0.312-0.208-0.56386-0.45242-0.75586-0.73242-0.192-0.288-0.28711-0.6387-0.28711-1.05468 0-0.424 0.0709-0.82146 0.21485-1.18946 0.144-0.368 0.35299-0.68698 0.625-0.95898 0.27998-0.28 0.61953-0.50016 1.01953-0.66016s0.85714-0.24023 1.36914-0.24023c0.504 0 0.92376 0.0728 1.25976 0.21679 0.336 0.136 0.61956 0.28708 0.85157 0.45508 0.24 0.16 0.43589 0.31303 0.58789 0.45703 0.152 0.136 0.29564 0.20313 0.43164 0.20313 0.112 0 0.20906-0.02799 0.28906-0.08399 0.08-0.064 0.16395-0.15167 0.25195-0.26367l0.66016-0.94726c-0.456-0.584-1.03624-1.04486-1.74024-1.38086s-1.49695-0.50391-2.37695-0.50391zm-27.16406 0.16797l-8.42383 17.19531h1.75195c0.184 0 0.34819-0.0523 0.49219-0.15625 0.152-0.112 0.26394-0.23881 0.33594-0.38281l1.9668-4.20117h6.99609l0.9375 4.20117c0.048 0.16 0.12628 0.29248 0.23828 0.39648 0.112 0.096 0.26875 0.14258 0.46875 0.14258h1.72852l-4.2129-17.19531h-2.27929zm10.77148 0l-2.09961 17.19531h2.25586l2.09961-17.19531h-2.25586zm72.375 0l-2.09961 17.19531h2.23242l0.79297-6.45508h2.49414c1.064 0 2.00804-0.15303 2.83204-0.45703 0.832-0.312 1.52789-0.7392 2.08789-1.2832 0.568-0.544 1.00087-1.19136 1.29687-1.94336 0.296-0.76 0.44336-1.59209 0.44336-2.49609 0-0.688-0.10822-1.31305-0.32422-1.87305s-0.54242-1.03945-0.98242-1.43945c-0.432-0.4-0.98425-0.70783-1.65625-0.92383s-1.46495-0.32422-2.37695-0.32422h-4.74024zm54.84375 0l-2.09961 17.19531h2.23243l0.79296-6.45508h2.49414c1.064 0 2.00804-0.15303 2.83204-0.45703 0.832-0.312 1.52789-0.7392 2.08789-1.2832 0.568-0.544 1.00087-1.19136 1.29687-1.94336 0.296-0.76 0.44336-1.59209 0.44336-2.49609 0-0.688-0.10822-1.31305-0.32422-1.87305s-0.54242-1.03945-0.98242-1.43945c-0.432-0.4-0.98425-0.70783-1.65625-0.92383s-1.46495-0.32422-2.37695-0.32422h-4.74024zm-102.49023 1.0918c-0.128 0-0.23622 0.0391-0.32422 0.11914-0.08 0.072-0.14164 0.16906-0.18164 0.28906l-0.91016 3.75586-1.87304 0.25195-0.09571 0.85156c-0.016 0.16 0.00797 0.28133 0.07227 0.36133 0.072 0.072 0.16339 0.10742 0.27539 0.10742h1.35547l-0.74414 6.08399c-0.048 0.376-0.0871 0.68011-0.11914 0.91211-0.024 0.232-0.04455 0.42045-0.06055 0.56445-0.008 0.144-0.01172 0.25594-0.01172 0.33594v0.17969c0.016 0.808 0.24359 1.42365 0.68359 1.84765 0.448 0.424 1.05994 0.63672 1.83594 0.63672 0.504 0 1.004-0.0971 1.5-0.28906 0.504-0.2 0.95175-0.47241 1.34375-0.81641l-0.45508-1.01953c-0.032-0.072-0.0674-0.12425-0.10742-0.15625-0.032-0.032-0.0842-0.04687-0.15625-0.04687-0.056 0-0.12508 0.0317-0.20508 0.0957-0.08 0.056-0.17882 0.11941-0.29882 0.19141s-0.25993 0.14107-0.41993 0.20507c-0.152 0.056-0.33673 0.08399-0.55273 0.08399-0.32 0-0.57558-0.0971-0.76758-0.28906-0.192-0.2-0.28906-0.50411-0.28906-0.91211v-0.10743c0.008-0.048 0.01739-0.13195 0.02539-0.25195 0.016-0.12 0.03459-0.28047 0.05859-0.48047s0.05766-0.46301 0.09766-0.79101l0.73047-5.97657h3.20508l0.17968-1.54882h-3.1914l0.51562-4.1875h-1.11523zm165.23437 0c-0.128 0-0.23622 0.0391-0.32422 0.11914-0.08 0.072-0.14164 0.16906-0.18164 0.28906l-0.91015 3.75586-1.87305 0.25195-0.0957 0.85156c-0.016 0.16 0.00796 0.28133 0.07226 0.36133 0.072 0.072 0.16339 0.10742 0.27539 0.10742h1.35547l-0.74414 6.08399c-0.048 0.376-0.0871 0.68011-0.11914 0.91211-0.024 0.232-0.04455 0.42045-0.06055 0.56445-0.008 0.144-0.01171 0.25594-0.01171 0.33594v0.17969c0.016 0.808 0.24359 1.42365 0.68359 1.84765 0.448 0.424 1.05994 0.63672 1.83594 0.63672 0.504 0 1.004-0.0971 1.5-0.28906 0.504-0.2 0.95175-0.47241 1.34375-0.81641l-0.45508-1.01953c-0.032-0.072-0.0674-0.12425-0.10742-0.15625-0.032-0.032-0.0842-0.04687-0.15625-0.04687-0.056 0-0.12508 0.0317-0.20508 0.0957-0.08 0.056-0.17883 0.11941-0.29883 0.19141s-0.25992 0.14107-0.41992 0.20507c-0.152 0.056-0.33674 0.08399-0.55274 0.08399-0.32 0-0.57557-0.0971-0.76757-0.28906-0.192-0.2-0.28907-0.50411-0.28907-0.91211v-0.10743c0.008-0.048 0.01739-0.13195 0.02539-0.25195 0.016-0.12 0.0346-0.28047 0.0586-0.48047s0.05765-0.46301 0.09765-0.79101l0.73047-5.97657h3.20508l0.17969-1.54882h-3.19141l0.51563-4.1875h-1.11524zm-115.55859 0.67187h2.49609c0.552 0 1.03518 0.0728 1.45118 0.2168 0.41599 0.136 0.7612 0.33561 1.0332 0.59961 0.272 0.256 0.47533 0.56754 0.61133 0.93554s0.20312 0.78405 0.20312 1.24805c0 0.608-0.0914 1.17141-0.27539 1.69141-0.184 0.512-0.45269 0.95603-0.80469 1.33203-0.352 0.368-0.78664 0.65723-1.30664 0.86523s-1.12078 0.3125-1.80078 0.3125h-2.49609l0.88867-7.20117zm54.84375 0h2.49609c0.552 0 1.03517 0.0728 1.45117 0.2168 0.41603 0.136 0.76121 0.33561 1.03321 0.59961 0.272 0.256 0.47533 0.56754 0.61133 0.93554s0.20312 0.78405 0.20312 1.24805c0 0.608-0.0914 1.17141-0.27539 1.69141-0.184 0.512-0.45269 0.95603-0.80469 1.33203-0.352 0.368-0.78664 0.65723-1.30664 0.86523s-1.12078 0.3125-1.80078 0.3125h-2.49609l0.88867-7.20117zm-139.11914 0.27539c0.04 0.328 0.0866 0.63778 0.14258 0.92578 0.056 0.28 0.10453 0.52619 0.14453 0.74219l1.57226 7.11719h-5.86718l3.32226-7.10352 0.32422-0.75586c0.12-0.28 0.24133-0.58978 0.36133-0.92578zm45.48828 2.82031c-0.872 0-1.68727 0.19592-2.44727 0.58789-0.752 0.39203-1.40875 0.92938-1.96875 1.60938-0.56 0.672-1.00031 1.45928-1.32031 2.36328s-0.47851 1.86858-0.47851 2.89258c0 0.8 0.11193 1.51078 0.33593 2.13476 0.224 0.62401 0.53555 1.15199 0.93555 1.58399s0.87572 0.76409 1.42774 0.99609c0.552 0.224 1.16021 0.33594 1.82421 0.33594 0.872 0 1.68727-0.19589 2.44727-0.58789 0.76-0.4 1.41675-0.93914 1.96875-1.61914 0.56-0.68 1.00031-1.47295 1.32031-2.37695s0.47852-1.86291 0.47852-2.87891c0-0.792-0.11194-1.501-0.33594-2.125s-0.53555-1.15198-0.93555-1.58398-0.87573-0.76038-1.42773-0.98438c-0.552-0.232-1.16022-0.34766-1.82422-0.34766zm171.04688 0c-0.87203 0-1.68727 0.19592-2.44727 0.58789-0.752 0.39203-1.40875 0.92938-1.96875 1.60938-0.56 0.672-1.00031 1.45928-1.32031 2.36328s-0.47852 1.86858-0.47852 2.89258c0 0.8 0.11194 1.51078 0.33594 2.13476 0.224 0.62401 0.53555 1.15199 0.93555 1.58399s0.87573 0.76409 1.42773 0.99609c0.552 0.224 1.16022 0.33594 1.82422 0.33594 0.872 0 1.68726-0.19589 2.44726-0.58789 0.76-0.4 1.41675-0.93914 1.96875-1.61914 0.56-0.68 1.00032-1.47295 1.32032-2.37695s0.47851-1.86291 0.47851-2.87891c0-0.792-0.11195-1.501-0.33593-2.125-0.22402-0.624-0.53555-1.15198-0.93555-1.58398s-0.87574-0.76038-1.42774-0.98438c-0.552-0.232-1.16022-0.34766-1.82421-0.34766zm14.02929 0c-0.864 0-1.70353 0.27613-2.51953 0.82813-0.816 0.544-1.54928 1.35183-2.19726 2.42383l0.17968-2.36328c0-0.48-0.23875-0.72071-0.71875-0.72071h-1.05664l-1.46289 12.16797h2.13477l0.69726-6.16797c0.224-0.664 0.49074-1.26285 0.80274-1.79882 0.32-0.54401 0.6652-1.00858 1.0332-1.39258s0.74667-0.68068 1.13867-0.88868c0.4-0.20798 0.79178-0.31054 1.17578-0.31054 0.624 0 1.05316 0.23131 1.28516 0.69531 0.232 0.456 0.29169 1.16305 0.17969 2.12305l-0.91211 7.74023h2.125l0.91015-7.74023c0.088-0.728 0.088-1.37536 0-1.94336-0.088-0.576-0.2559-1.05917-0.5039-1.45117-0.24-0.392-0.55527-0.68868-0.94727-0.88868-0.384-0.208-0.83175-0.3125-1.34375-0.3125zm-172.60742 0.01172c-0.904 0-1.73981 0.209-2.50781 0.625-0.76 0.416-1.41675 0.97197-1.96875 1.66797s-0.98292 1.49639-1.29492 2.40039c-0.304 0.904-0.45704 1.84803-0.45704 2.83203 0 0.736 0.0933 1.41135 0.27735 2.02735 0.192 0.608 0.46812 1.13226 0.82812 1.57226 0.368 0.432 0.81947 0.76782 1.35547 1.00782 0.544 0.24 1.1671 0.35937 1.8711 0.35937 0.464 0 0.89687-0.0354 1.29687-0.10742 0.408-0.072 0.79978-0.19508 1.17578-0.3711 0.376-0.18398 0.75291-0.42842 1.12891-0.73242s0.7715-0.68462 1.1875-1.14062l-0.52735-0.64844c-0.12-0.136-0.2562-0.20312-0.4082-0.20312-0.168 0-0.34158 0.0802-0.51758 0.24023-0.168 0.16-0.37504 0.33534-0.62304 0.52734-0.248 0.184-0.55583 0.35563-0.92383 0.51563-0.36 0.16-0.80775 0.24023-1.34375 0.24023-0.432 0-0.81263-0.0765-1.14063-0.22851-0.32-0.16-0.5924-0.38016-0.8164-0.66016-0.224-0.288-0.39191-0.63125-0.50391-1.03125-0.112-0.408-0.16797-0.85947-0.16797-1.35547 0-0.816 0.1045-1.58097 0.3125-2.29297 0.216-0.712 0.507-1.32765 0.875-1.84765s0.79716-0.92861 1.28516-1.22461c0.488-0.304 1.00852-0.45508 1.56055-0.45508 0.408 0 0.74009 0.0522 0.99609 0.15625 0.264 0.096 0.4822 0.20794 0.6582 0.33594 0.176 0.12 0.31788 0.23191 0.42188 0.33594 0.112 0.096 0.22393 0.14453 0.33593 0.14453 0.088 0 0.16257-0.02055 0.22657-0.06055 0.072-0.04 0.13736-0.0923 0.19336-0.15625l0.67187-0.80469c-0.408-0.544-0.88373-0.95437-1.42773-1.23437-0.544-0.288-1.2213-0.4336-2.0293-0.4336zm54.98437 0c-0.90399 0-1.73981 0.209-2.50781 0.625-0.76 0.416-1.41675 0.97197-1.96875 1.66797s-0.98292 1.49639-1.29492 2.40039c-0.304 0.904-0.45703 1.84803-0.45703 2.83203 0 0.736 0.0933 1.41135 0.27734 2.02735 0.192 0.608 0.46813 1.13226 0.82813 1.57226 0.368 0.432 0.81947 0.76782 1.35547 1.00782 0.544 0.24 1.16709 0.35937 1.87109 0.35937 0.464 0 0.89688-0.0354 1.29688-0.10742 0.408-0.072 0.79978-0.19508 1.17578-0.3711 0.376-0.18398 0.7529-0.42842 1.1289-0.73242s0.7715-0.68462 1.1875-1.14062l-0.52734-0.64844c-0.12-0.136-0.2562-0.20312-0.4082-0.20312-0.168 0-0.34158 0.0802-0.51758 0.24023-0.168 0.16-0.37505 0.33534-0.62305 0.52734-0.248 0.184-0.55583 0.35563-0.92383 0.51563-0.36 0.16-0.80775 0.24023-1.34375 0.24023-0.432 0-0.81262-0.0765-1.14062-0.22851-0.32-0.16-0.59241-0.38016-0.81641-0.66016-0.224-0.288-0.3919-0.63125-0.5039-1.03125-0.112-0.408-0.16797-0.85947-0.16797-1.35547 0-0.816 0.1045-1.58097 0.3125-2.29297 0.216-0.712 0.507-1.32765 0.875-1.84765s0.79715-0.92861 1.28515-1.22461c0.488-0.304 1.00855-0.45508 1.56055-0.45508 0.408 0 0.74009 0.0522 0.99609 0.15625 0.264 0.096 0.48221 0.20794 0.65821 0.33594 0.176 0.12 0.31787 0.23191 0.42187 0.33594 0.112 0.096 0.22394 0.14453 0.33594 0.14453 0.088 0 0.16256-0.02055 0.22656-0.06055 0.072-0.04 0.13736-0.0923 0.19336-0.15625l0.67188-0.80469c-0.408-0.544-0.88374-0.95437-1.42774-1.23437-0.544-0.288-1.2213-0.4336-2.0293-0.4336zm10.77149 0c-0.648 0-1.25622 0.10078-1.82422 0.30078-0.56 0.2-1.07487 0.47613-1.54687 0.82813-0.464 0.344-0.88005 0.75633-1.24805 1.23633-0.36 0.48-0.66783 0.99859-0.92383 1.55859-0.248 0.56-0.44017 1.15334-0.57617 1.77734-0.128 0.616-0.19336 1.23538-0.19336 1.85938 0 0.752 0.1045 1.43302 0.3125 2.04102s0.50467 1.12659 0.88867 1.55859c0.384 0.424 0.8523 0.75237 1.4043 0.98437s1.17509 0.34766 1.87109 0.34766c0.512 0 0.98774-0.0466 1.42774-0.14258 0.448-0.088 0.87343-0.23359 1.27343-0.43359 0.408-0.2 0.80722-0.44814 1.19922-0.74414 0.392-0.304 0.79122-0.6678 1.19922-1.0918l-0.52734-0.66015c-0.12-0.13603-0.25621-0.20313-0.40821-0.20313-0.128 0-0.25481 0.0391-0.38281 0.11914-0.128 0.08-0.26987 0.18078-0.42187 0.30078-0.144 0.112-0.30624 0.24077-0.49024 0.38477-0.176 0.136-0.385 0.26281-0.625 0.38281-0.232 0.112-0.50068 0.20906-0.80469 0.28906-0.296 0.08-0.63553 0.11914-1.01953 0.11914-0.944 0-1.65104-0.27984-2.12304-0.83984-0.464-0.568-0.69727-1.38697-0.69727-2.45899v-0.25195c0.008-0.088 0.01367-0.17762 0.01367-0.26562 1.584-0.16 2.87872-0.37077 3.88672-0.63477s1.80095-0.57183 2.37695-0.92383c0.57601-0.36 0.9715-0.76117 1.1875-1.20117 0.21601-0.448 0.32422-0.93489 0.32422-1.46289 0-0.296-0.0728-0.6095-0.21679-0.9375-0.136-0.328-0.34677-0.62644-0.63477-0.89844s-0.65747-0.49587-1.10547-0.67187-0.9797-0.26563-1.5957-0.26563zm38.20312 0c-0.648 0-1.25621 0.10078-1.82421 0.30078-0.56 0.2-1.07488 0.47613-1.54688 0.82813-0.464 0.344-0.88005 0.75633-1.24805 1.23633-0.36 0.48-0.66782 0.99859-0.92382 1.55859-0.248 0.56-0.44018 1.15334-0.57618 1.77734-0.128 0.616-0.19336 1.23538-0.19336 1.85938 0 0.752 0.1045 1.43302 0.3125 2.04102s0.50468 1.12659 0.88868 1.55859c0.384 0.424 0.85229 0.75237 1.40429 0.98437s1.1751 0.34766 1.8711 0.34766c0.512 0 0.98773-0.0466 1.42773-0.14258 0.448-0.088 0.87344-0.23359 1.27344-0.43359 0.408-0.2 0.80722-0.44814 1.19922-0.74414 0.392-0.304 0.79122-0.6678 1.19922-1.0918l-0.52735-0.66015c-0.12-0.13603-0.2562-0.20313-0.4082-0.20313-0.128 0-0.25481 0.0391-0.38281 0.11914-0.128 0.08-0.26988 0.18078-0.42188 0.30078-0.144 0.112-0.30623 0.24077-0.49023 0.38477-0.176 0.136-0.385 0.26281-0.625 0.38281-0.232 0.112-0.50069 0.20906-0.80469 0.28906-0.296 0.08-0.63553 0.11914-1.01953 0.11914-0.944 0-1.65105-0.27984-2.12305-0.83984-0.464-0.568-0.69726-1.38697-0.69726-2.45899v-0.25195c0.008-0.088 0.01367-0.17762 0.01367-0.26562 1.584-0.16 2.87872-0.37077 3.88672-0.63477s1.80095-0.57183 2.37695-0.92383c0.576-0.36 0.9715-0.76117 1.1875-1.20117 0.216-0.448 0.32422-0.93489 0.32422-1.46289 0-0.296-0.0728-0.6095-0.2168-0.9375-0.136-0.328-0.34676-0.62644-0.63476-0.89844s-0.65747-0.49587-1.10547-0.67187-0.97971-0.26563-1.59571-0.26563zm29.63477 0c-0.904 0-1.73981 0.209-2.50781 0.625-0.76 0.416-1.41675 0.97197-1.96875 1.66797s-0.98292 1.49639-1.29492 2.40039c-0.304 0.904-0.45704 1.84803-0.45704 2.83203 0 0.736 0.0933 1.41135 0.27735 2.02735 0.192 0.608 0.46812 1.13226 0.82812 1.57226 0.368 0.432 0.81947 0.76782 1.35547 1.00782 0.544 0.24 1.1671 0.35937 1.8711 0.35937 0.464 0 0.89687-0.0354 1.29687-0.10742 0.408-0.072 0.79978-0.19508 1.17578-0.3711 0.376-0.18398 0.75291-0.42842 1.12891-0.73242s0.7715-0.68462 1.1875-1.14062l-0.52735-0.64844c-0.12-0.136-0.2562-0.20312-0.4082-0.20312-0.168 0-0.34158 0.0802-0.51758 0.24023-0.168 0.16-0.37504 0.33534-0.62304 0.52734-0.248 0.184-0.55583 0.35563-0.92383 0.51563-0.36 0.16-0.80775 0.24023-1.34375 0.24023-0.432 0-0.81263-0.0765-1.14063-0.22851-0.32-0.16-0.5924-0.38016-0.8164-0.66016-0.224-0.288-0.39191-0.63125-0.50391-1.03125-0.112-0.408-0.16797-0.85947-0.16797-1.35547 0-0.816 0.1045-1.58097 0.3125-2.29297 0.216-0.712 0.507-1.32765 0.875-1.84765s0.79716-0.92861 1.28516-1.22461c0.488-0.304 1.00856-0.45508 1.56054-0.45508 0.40801 0 0.7401 0.0522 0.9961 0.15625 0.264 0.096 0.4822 0.20794 0.6582 0.33594 0.176 0.12 0.31788 0.23191 0.42188 0.33594 0.112 0.096 0.22393 0.14453 0.33593 0.14453 0.088 0 0.16257-0.02055 0.22657-0.06055 0.072-0.04 0.13736-0.0923 0.19336-0.15625l0.67187-0.80469c-0.408-0.544-0.88373-0.95437-1.42773-1.23437-0.544-0.288-1.2213-0.4336-2.0293-0.4336zm-92.04297 0.09766c-0.432 0.056-0.85176 0.22762-1.25976 0.51562-0.408 0.28-0.79979 0.67179-1.17579 1.17579-0.368 0.496-0.7132 1.08367-1.0332 1.76367l0.20508-2.67578c0-0.48-0.24442-0.72071-0.73242-0.72071h-1.05664l-1.46289 12.16797h2.08789l0.67187-5.62695c0.496-1.88 1.13964-3.18039 1.93164-3.90039 0.8-0.72 1.71977-0.87303 2.75977-0.45703l0.38476-2.05078c-0.448-0.192-0.88831-0.25541-1.32031-0.19141zm54.84375 0c-0.432 0.056-0.85176 0.22762-1.25976 0.51562-0.408 0.28-0.79979 0.67179-1.17579 1.17579-0.368 0.496-0.7132 1.08367-1.0332 1.76367l0.20508-2.67578c0-0.48-0.24442-0.72071-0.73242-0.72071h-1.05664l-1.46289 12.16797h2.08789l0.67187-5.62695c0.496-1.88 1.13964-3.18039 1.93164-3.90039 0.8-0.72 1.71977-0.87303 2.75977-0.45703l0.38476-2.05078c-0.448-0.192-0.88831-0.25541-1.32031-0.19141zm-51.57226 0.07031l-1.46485 12.15625h2.09961l1.46484-12.15625h-2.0996zm78.60937 0l-1.46484 12.15625h2.09961l1.46484-12.15625h-2.09961zm24.98438 0l-1.46485 12.15625h2.09961l1.46485-12.15625h-2.09961zm-82.7793 1.36914c0.32 0 0.5924 0.0429 0.81641 0.13086 0.22397 0.08 0.40306 0.1845 0.53906 0.3125 0.144 0.128 0.2485 0.27164 0.3125 0.43164 0.064 0.152 0.0957 0.30129 0.0957 0.44532 0 0.288-0.0634 0.56412-0.19141 0.82812-0.128 0.264-0.39296 0.51214-0.79296 0.74414-0.4 0.224-0.97085 0.43477-1.71485 0.63477-0.744 0.192-1.73284 0.36362-2.96484 0.51562 0.128-0.568 0.30706-1.09598 0.53906-1.58398 0.232-0.496 0.5138-0.92321 0.8418-1.28321 0.328-0.368 0.70295-0.65528 1.12695-0.86328s0.88858-0.3125 1.39258-0.3125zm38.20312 0c0.32 0 0.59241 0.0429 0.81641 0.13086 0.224 0.08 0.40306 0.1845 0.53906 0.3125 0.144 0.128 0.2485 0.27164 0.3125 0.43164 0.064 0.152 0.09571 0.30129 0.09571 0.44532 0 0.288-0.0634 0.56412-0.19141 0.82812-0.128 0.264-0.39297 0.51214-0.79297 0.74414-0.4 0.224-0.97084 0.43477-1.71484 0.63477-0.744 0.192-1.73285 0.36362-2.96485 0.51562 0.128-0.568 0.30707-1.09598 0.53907-1.58398 0.232-0.496 0.51379-0.92321 0.84179-1.28321 0.328-0.368 0.70296-0.65528 1.12696-0.86328s0.88857-0.3125 1.39257-0.3125zm11.48438 0.11914c0.44 0 0.87092 0.0877 1.29492 0.26368 0.432 0.168 0.80147 0.46839 1.10547 0.90039l-0.39648 3.15625c-0.232 0.696-0.50813 1.33592-0.82813 1.91992-0.312 0.584-0.65153 1.09143-1.01953 1.52344-0.36 0.42399-0.73691 0.75609-1.12891 0.99609s-0.78006 0.36133-1.16406 0.36133c-0.632 0-1.11889-0.24814-1.46289-0.74414-0.336-0.504-0.50391-1.2316-0.50391-2.1836 0-0.712 0.0951-1.43587 0.28711-2.17187 0.192-0.736 0.46441-1.40019 0.81641-1.99219 0.36-0.6 0.79092-1.08884 1.29492-1.46484s1.07308-0.56446 1.70508-0.56446zm-127.98438 0.01172c0.832 0 1.46821 0.28552 1.90821 0.85352 0.448 0.56 0.67187 1.39953 0.67187 2.51953 0 0.76-0.0914 1.48759-0.27539 2.18359-0.184 0.696-0.44897 1.31166-0.79297 1.84766-0.336 0.528-0.74461 0.95344-1.22461 1.27344-0.472 0.32-0.99998 0.47851-1.58398 0.47851-0.84 0-1.47992-0.28356-1.91992-0.85156-0.44-0.576-0.66016-1.42297-0.66016-2.54297 0-0.76 0.0933-1.48955 0.27734-2.18555 0.184-0.696 0.4433-1.30793 0.7793-1.83593s0.74089-0.94777 1.21289-1.25977c0.48-0.32 1.01542-0.48047 1.60742-0.48047zm171.04688 0c0.832 0 1.4682 0.28552 1.9082 0.85352 0.448 0.56 0.67188 1.39953 0.67188 2.51953 0 0.76-0.0914 1.48759-0.27539 2.18359-0.184 0.696-0.44897 1.31166-0.79297 1.84766-0.336 0.528-0.74461 0.95344-1.22461 1.27344-0.472 0.32-0.99999 0.47851-1.58399 0.47851-0.84 0-1.47992-0.28356-1.91992-0.85156-0.44-0.576-0.66015-1.42297-0.66015-2.54297 0-0.76 0.0933-1.48955 0.27734-2.18555 0.184-0.696 0.4433-1.30793 0.7793-1.83593s0.74089-0.94777 1.21289-1.25977c0.48-0.32 1.01542-0.48047 1.60742-0.48047z"
     fill="url(#SVGID_1_)" /></svg>